<?xml version="1.0" encoding="UTF-8"?>
<svg width="50px" height="50px" viewBox="0 0 50 50" version="1.1" xmlns="http://www.w3.org/2000/svg" xmlns:xlink="http://www.w3.org/1999/xlink">
    <!-- Generator: Sketch 49.1 (51147) - http://www.bohemiancoding.com/sketch -->
    <title>-g-icon_phantom_blue</title>
    <desc>Created with Sketch.</desc>
    <defs>
        <polygon id="path-1" points="25.0001042 0 50 0 50 50 25.0001042 50 0.000208333333 50 0.000208333333 0"></polygon>
        <path d="M0.347457627,0.561403509 C0.347457627,0.631578947 0.347457627,0.98245614 0.416949153,1.33333333 C0.416949153,0.771929825 0.903389831,0.280701754 1.52881356,0.280701754 L1.59830508,0.210526316 C1.32033898,0.140350877 1.11186441,0.140350877 0.903389831,0.140350877 C0.555932203,0.140350877 0.347457627,0.280701754 0.347457627,0.561403509 Z" id="path-3"></path>
        <path d="M0.487135593,1.26315789 C0.487135593,1.33263158 0.487135593,1.33263158 0.555932203,1.40350877 C0.555932203,1.47368421 0.972881356,1.75508772 1.18205085,1.75508772 C1.25015254,1.75508772 1.45932203,1.75508772 1.73728814,1.68421053 C1.66779661,1.54385965 1.59830508,1.47368421 1.59830508,1.40350877 C1.25015254,1.33263158 1.04237288,1.19368421 0.903389831,0.98245614 C0.833898305,0.842105263 0.76440678,0.701754386 0.76440678,0.561403509 C0.694915254,0.491929825 0.625423729,0.421052632 0.555932203,0.350877193 C0.555932203,0.350877193 0.487135593,0.280701754 0.416949153,0.280701754 C0.277966102,0.771929825 0.416949153,1.12280702 0.487135593,1.26315789 Z" id="path-5"></path>
        <path d="M7.29661017,0.350877193 L7.15762712,0.421052632 C7.08813559,0.49122807 7.01864407,0.49122807 6.94915254,0.561403509 L6.87966102,0.561403509 C6.46271186,0.842105263 6.04576271,1.12280702 5.90677966,1.26315789 C5.76710169,1.40421053 3.8220339,3.43859649 2.63998305,4.70105263 C1.45932203,5.96491228 0.486440678,6.94736842 0.347457627,7.15789474 L0.347457627,7.43859649 C0.486440678,7.64912281 0.833898305,7.78947368 0.903389831,7.78947368 C0.972881356,7.78947368 1.59830508,7.36842105 1.73728814,7.22807018 C2.01525424,7.15789474 2.15423729,7.01754386 2.22372881,6.94736842 C2.43220339,6.87719298 5.07218644,4.98245614 6.32372881,4.07017544 L6.60169492,3.85964912 C7.01864407,3.57894737 7.29661017,3.36842105 7.36610169,3.36842105 C7.57457627,3.22807018 7.85254237,2.87649123 7.9220339,2.66666667 C7.9220339,2.52631579 8.06101695,2.10596491 8.13120339,1.61403509 L8.13120339,1.54315789 L8.13120339,1.47368421 C8.19930508,1.26315789 8.19930508,1.05263158 8.26949153,0.912280702 C7.85254237,0.842105263 7.50508475,0.631578947 7.36610169,0.280701754 C7.36610169,0.280701754 7.29661017,0.280701754 7.29661017,0.350877193 Z" id="path-7"></path>
        <path d="M3.12711864,4.07017544 C2.71016949,4.28070175 1.59830508,5.05263158 1.45932203,5.19298246 C1.32033898,5.33333333 1.11186441,5.61403509 0.972881356,5.89473684 C0.972881356,5.96491228 0.903389831,6.1754386 0.833898305,6.31578947 C0.76440678,6.59649123 0.694915254,6.87719298 0.625423729,7.0877193 L0.625423729,7.15789474 L0.625423729,7.22807018 C0.625423729,7.22807018 0.625423729,7.29824561 0.555237288,7.29824561 C0.833898305,7.43859649 1.11186441,7.71929825 1.25084746,8 C1.38983051,7.92982456 1.45932203,7.78947368 1.59830508,7.71929825 L1.66779661,7.64912281 L1.73728814,7.57894737 C1.87627119,7.43859649 2.08474576,7.29824561 2.15423729,7.29824561 C2.43220339,7.15789474 2.71016949,7.0877193 2.84915254,6.94736842 C2.98744068,6.87719298 5.48983051,4.07017544 6.87966102,2.59649123 L7.08813559,2.38596491 C7.78305085,1.61403509 8.26949153,1.12280702 8.33898305,1.05333333 C8.47866102,0.912280702 8.40847458,0.842105263 8.33898305,0.771929825 C8.26949153,0.701754386 8.06101695,0.490526316 7.9220339,0.421052632 C7.36610169,0.842105263 3.47457627,3.78947368 3.12711864,4.07017544 Z" id="path-9"></path>
        <path d="M0.833898305,0.561403509 L0.76440678,0.561403509 C0.347457627,0.561403509 0,0.912280702 0,1.33333333 L0,1.40350877 L0,1.47368421 C0.0694915254,1.8245614 0.416949153,2.03508772 0.76440678,2.03508772 L0.833898305,2.03508772 L0.903389831,2.03508772 C1.25015254,1.96491228 1.52881356,1.68421053 1.59830508,1.33333333 L1.59830508,1.26315789 L1.59830508,1.19298246 C1.52881356,0.842105263 1.25015254,0.561403509 0.903389831,0.49122807 C0.972881356,0.561403509 0.903389831,0.561403509 0.833898305,0.561403509 Z" id="path-11"></path>
        <polygon id="path-13" points="0.000277966102 0.421052632 7.99152542 0.421052632 7.99152542 7.85964912 0.000277966102 7.85964912"></polygon>
        <path d="M0.416949153,1.26315789 L0.416949153,1.33333333 L0.416949153,1.47368421 C0.486440678,1.8245614 0.763711864,2.10526316 1.11186441,2.1754386 L1.18205085,2.1754386 L1.25084746,2.1754386 C1.59830508,2.1754386 1.9450678,1.89473684 2.01525424,1.61403509 L2.01525424,1.54385965 L2.01525424,1.47368421 C2.01525424,1.05263158 1.66849153,0.701754386 1.25084746,0.701754386 L1.18205085,0.701754386 L1.11186441,0.701754386 C1.07572881,0.694736842 1.03889831,0.69122807 1.00345763,0.69122807 C0.695610169,0.69122807 0.416949153,0.94877193 0.416949153,1.26315789 Z" id="path-15"></path>
        <polygon id="path-17" points="0.486301695 0.14077193 7.43545424 0.14077193 7.43545424 8.42105263 0.486301695 8.42105263"></polygon>
    </defs>
    <g id="-g-icon_phantom_blue" stroke="none" stroke-width="1" fill="none" fill-rule="evenodd">
        <g id="Group-3">
            <mask id="mask-2" fill="white">
                <use xlink:href="#path-1"></use>
            </mask>
            <g id="Clip-2"></g>
            <path d="M40.4960417,50 L9.504375,50 C4.25541667,50 0.000208333333,45.7447917 0.000208333333,40.4958333 L0.000208333333,9.50416667 C0.000208333333,4.25520833 4.25541667,0 9.504375,0 L40.4960417,0 C45.745,0 50.0002083,4.25520833 50.0002083,9.50416667 L50.0002083,40.4958333 C50.0002083,45.7447917 45.745,50 40.4960417,50" id="Fill-1" fill="#4A90E2" mask="url(#mask-2)"></path>
        </g>
        <g id="Page-1" transform="translate(5.000000, 5.000000)">
            <g id="Group-5" transform="translate(6.949153, 7.649123)">
                <path d="M15.0098915,6.5965614 C15.0098915,6.52638596 14.9404,6.45621053 14.8014169,6.45621053 L12.3692136,6.45621053 C12.2302305,6.45621053 12.160739,6.5965614 12.160739,6.5965614 L12.160739,7.01761404 L15.080078,7.01761404 L15.080078,6.5965614 L15.0098915,6.5965614 Z" id="Fill-1" fill="#FFFFFF"></path>
                <path d="M0.417018644,1.33340351 C0.417018644,0.772 0.903459322,0.28077193 1.52888305,0.28077193 L1.59837458,0.210596491 C1.32040847,0.140421053 1.1119339,0.140421053 0.903459322,0.140421053 C0.556001695,0.140421053 0.347527119,0.28077193 0.347527119,0.561473684 C0.347527119,0.631649123 0.347527119,0.982526316 0.417018644,1.33340351" id="Fill-3" fill="#4D4D4D"></path>
            </g>
            <g id="Group-8" transform="translate(6.949153, 7.649123)">
                <mask id="mask-4" fill="white">
                    <use xlink:href="#path-3"></use>
                </mask>
                <g id="Clip-7"></g>
                <polygon id="Fill-6" fill="#FFFFFF" mask="url(#mask-4)" points="-2.77966102 4.56140351 4.79491525 4.56140351 4.79491525 -3.0877193 -2.77966102 -3.0877193"></polygon>
            </g>
            <path d="M7.85240339,31.789193 C7.78291186,31.6495439 7.71342034,31.509193 7.71342034,31.3681404 C7.64392881,31.2986667 7.57443729,31.2277895 7.50494576,31.1583158 C7.50494576,31.1583158 7.43545424,31.0874386 7.36596271,31.0874386 C7.22697966,31.5786667 7.36596271,31.9295439 7.43545424,32.0698947 C7.43545424,32.1400702 7.43545424,32.1400702 7.50494576,32.2109474 C7.50494576,32.2804211 7.92189492,32.5618246 8.13036949,32.5618246 C8.19986102,32.5618246 8.40833559,32.5618246 8.68630169,32.4909474 C8.61681017,32.3512982 8.54731864,32.2804211 8.54731864,32.2109474 C8.19986102,32.1400702 7.99138644,32.0004211 7.85240339,31.789193" id="Fill-9" fill="#4D4D4D"></path>
            <g id="Group-13" transform="translate(6.949153, 30.807018)">
                <mask id="mask-6" fill="white">
                    <use xlink:href="#path-5"></use>
                </mask>
                <g id="Clip-12"></g>
                <polygon id="Fill-11" fill="#FFFFFF" mask="url(#mask-6)" points="-2.77966102 4.9122807 4.86440678 4.9122807 4.86440678 -2.94736842 -2.77966102 -2.94736842"></polygon>
            </g>
            <g id="Group-26" transform="translate(0.000000, 7.649123)">
                <path d="M33.4251458,23.4383158 C33.3556542,23.509193 33.2868576,23.5786667 33.2166712,23.6495439 C33.2166712,23.789193 33.1478746,23.9295439 33.0776881,24.0698947 C32.9394,24.2804211 32.7302305,24.4207719 32.4529593,24.4909474 C32.3827729,24.5618246 32.3827729,24.6312982 32.3132814,24.7716491 L32.2444847,24.8418246 C32.660739,24.9127018 32.8004169,24.9127018 32.8692136,24.9127018 C33.0776881,24.9127018 33.4953322,24.6312982 33.4953322,24.5618246 L33.4953322,24.4909474 C33.5641288,24.2804211 33.6343153,24.0004211 33.4953322,23.3681404 L33.4251458,23.4383158" id="Fill-14" fill="#FFFFFF"></path>
                <path d="M32.5218949,0.28077193 C33.1473186,0.28077193 33.6344542,0.772 33.6344542,1.33340351 L33.6344542,1.40357895 C33.7032508,0.982526316 33.7032508,0.561473684 33.7032508,0.491298246 C33.7032508,0.28077193 33.4947763,0.070245614 33.1473186,0.070245614 C32.939539,0.070245614 32.7303695,0.070245614 32.4524034,0.140421053 C32.4524034,0.28077193 32.4524034,0.28077193 32.5218949,0.28077193" id="Fill-16" fill="#FFFFFF"></path>
                <path d="M31.8968881,21.7545263 C31.4104475,21.6141754 30.3680746,20.9124211 30.1596,20.7018947 C29.8816339,20.421193 26.0596,15.5790877 25.7121424,15.0169825 C25.4334814,14.5264561 24.5300915,13.1229474 25.3646847,10.9475088 C25.7121424,10.1054035 26.8233119,8.21066667 30.5070576,4.21066667 L30.5765492,4.14049123 C30.6453458,4.07031579 30.7155322,4.00014035 30.7155322,4.00014035 C30.9240068,3.78961404 31.2019729,3.64926316 31.6877186,3.50891228 C31.9663797,3.43873684 32.2443458,3.29838596 32.6612949,3.08785965 L32.5216169,2.4562807 C31.9663797,2.38610526 31.5494305,1.96505263 31.5494305,1.40364912 C31.340261,1.26329825 31.2019729,1.12294737 31.0629898,0.982596491 C30.7155322,1.26329825 30.4368712,1.82470175 30.2290915,2.31592982 C30.0206169,2.73698246 29.8816339,3.08785965 29.6731593,3.22821053 C29.2555153,3.57908772 26.4070576,5.544 24.6697695,6.66680702 C23.6961932,7.29838596 22.9324814,7.7194386 22.2375661,7.92996491 L22.1680746,7.92996491 L22.1680746,7.22821053 L19.2494305,7.22821053 L19.2494305,7.92996491 L19.179939,7.92996491 C18.4850237,7.7194386 17.7206169,7.29838596 16.7477356,6.66680702 C15.0104475,5.544 12.1612949,3.57908772 11.7443458,3.22821053 C11.5358712,3.08785965 11.3968881,2.73698246 11.1884136,2.31592982 C10.9792441,1.82470175 10.7019729,1.26329825 10.3545153,0.982596491 C10.2155322,1.12294737 10.0070576,1.26329825 9.86807458,1.40364912 C9.86807458,1.89487719 9.45112542,2.38610526 8.89449831,2.4562807 L8.47824407,3.01768421 C8.89449831,3.22821053 9.24195593,3.3685614 9.52061695,3.50891228 C9.93687119,3.64926316 10.2155322,3.78961404 10.3545153,4.00014035 C10.3545153,4.00014035 10.4240068,4.07031579 10.4934983,4.21066667 C14.1765492,8.21066667 15.2884136,10.1054035 15.6358712,10.9475088 C16.400278,13.1229474 15.5663797,14.5966316 15.2884136,15.0169825 C14.9409559,15.5790877 11.118922,20.4913684 10.8409559,20.7018947 C10.5629898,20.9818947 9.58941356,21.6141754 9.1036678,21.7545263 C8.96468475,21.8247018 8.68671864,21.8948772 8.33926102,22.1054035 C8.40875254,22.2457544 8.54704068,22.3854035 8.61722712,22.5264561 L9.03417627,22.5264561 C9.17315932,22.5264561 9.31214237,22.5966316 9.45112542,22.666807 C9.58941356,22.7362807 9.6596,22.8773333 9.72909153,22.9475088 C9.86807458,23.1580351 9.93687119,23.4380351 9.86807458,23.6492632 L9.93687119,23.7194386 C10.0070576,23.7889123 10.1460407,23.8597895 10.3545153,23.9299649 C10.6317864,23.5790877 10.8409559,23.0176842 10.9792441,22.7362807 C11.0494305,22.666807 11.0494305,22.5966316 11.0494305,22.5264561 C11.118922,22.3854035 11.3968881,21.8948772 12.2307864,21.2632982 C12.9257017,20.7720702 16.3307864,18.1748772 16.6782441,18.0352281 C16.8172271,17.9650526 16.9562102,18.1054035 17.0951932,18.1748772 C17.2334814,18.3159298 17.4426508,18.4562807 17.7901085,18.5257544 C18.4155322,18.5966316 19.6656847,18.666807 20.500278,18.666807 C21.3341763,18.666807 22.6538203,18.5966316 23.2104475,18.5257544 C23.4877186,18.4562807 23.6961932,18.3159298 23.9053627,18.1748772 C24.0436508,18.1054035 24.1138373,18.0352281 24.2528203,18.0352281 L24.3223119,18.0352281 C24.6697695,18.1748772 28.0748542,20.7018947 28.7697695,21.2632982 C29.5341763,21.8948772 29.8816339,22.3159298 29.9504305,22.5264561 C29.9504305,22.5966316 30.0206169,22.5966316 30.0206169,22.666807 L30.0206169,22.7362807 C30.1596,23.0176842 30.3680746,23.5089123 30.6453458,23.8597895 C30.7843288,23.7889123 30.9928034,23.6492632 30.9928034,23.6492632 L31.0629898,23.5790877 C30.9928034,23.3685614 31.0629898,23.0871579 31.2019729,22.8773333 C31.340261,22.666807 31.618922,22.4562807 31.8968881,22.3854035 C32.0351763,22.3854035 32.1741593,22.3159298 32.3138373,22.3854035 C32.3138373,22.3159298 32.3826339,22.3159298 32.3826339,22.2457544 L32.4528203,22.1054035 C32.4528203,22.0345263 32.5216169,21.9650526 32.5216169,21.9650526 C32.3826339,21.8948772 32.2443458,21.8247018 32.1741593,21.7545263 C32.1741593,21.8948772 31.9663797,21.7545263 31.8968881,21.7545263" id="Fill-18" fill="#FFFFFF"></path>
                <polygon id="Fill-20" fill="#FFFFFF" points="13.4812864 8.07031579 13.4812864 16.7713684 14.2456932 15.8597895 14.2456932 9.05277193"></polygon>
                <polygon id="Fill-22" fill="#FFFFFF" points="27.5183661 16.7716491 27.5183661 8.07059649 26.7539593 9.05235088 26.7539593 15.8593684"></polygon>
                <path d="M2.2238678,8.35094737 C2.43234237,8.28077193 5.07302034,6.38603509 6.3238678,5.47375439 L6.6018339,5.26322807 C7.01878305,4.98252632 7.29674915,4.772 7.36624068,4.772 C7.57471525,4.63164912 7.85268136,4.28077193 7.92217288,4.07024561 C7.92217288,3.92989474 8.06115593,3.50884211 8.13064746,3.01761404 L8.13064746,2.9474386 L8.13064746,2.87726316 C8.20013898,2.66673684 8.20013898,2.45621053 8.26963051,2.31585965 C7.85268136,2.24568421 7.50522373,2.03515789 7.36624068,1.6842807 C7.36624068,1.6842807 7.29674915,1.6842807 7.29674915,1.75445614 L7.1577661,1.82463158 C7.08827458,1.89480702 7.01878305,1.89480702 6.94929153,1.96498246 L6.8798,1.96498246 C6.46285085,2.24568421 6.04590169,2.52638596 5.90691864,2.66673684 C5.76793559,2.80708772 3.82217288,4.84217544 2.64081695,6.10533333 C1.45946102,7.36849123 0.486579661,8.35094737 0.34759661,8.56147368 L0.34759661,8.84217544 C0.486579661,9.05270175 0.834037288,9.19305263 0.903528814,9.19305263 C0.973020339,9.19305263 1.59844407,8.772 1.73742712,8.63164912 C2.01539322,8.56147368 2.15437627,8.42112281 2.2238678,8.35094737" id="Fill-24" fill="#4D4D4D"></path>
            </g>
            <g id="Group-29" transform="translate(0.000000, 9.052632)">
                <mask id="mask-8" fill="white">
                    <use xlink:href="#path-7"></use>
                </mask>
                <g id="Clip-28"></g>
                <polygon id="Fill-27" fill="#FFFFFF" mask="url(#mask-8)" points="-2.77966102 10.9473684 11.5355932 10.9473684 11.5355932 -2.87719298 -2.77966102 -2.87719298"></polygon>
            </g>
            <path d="M9.58969153,8.63164912 C9.72867458,8.56147368 9.7981661,8.42112281 9.93714915,8.35094737 L10.0066407,8.28077193 L10.0761322,8.21059649 C10.2151153,8.07024561 10.4235898,7.92989474 10.4930814,7.92989474 C10.7710475,7.78954386 11.0490136,7.71936842 11.1879966,7.57901754 C11.3269797,7.50884211 13.8286746,4.70182456 15.2185051,3.22814035 L15.4269797,3.01761404 C16.1218949,2.24568421 16.6083356,1.75445614 16.6778271,1.6842807 C16.8168102,1.54392982 16.7473186,1.47375439 16.6778271,1.40357895 C16.6083356,1.33340351 16.399861,1.12287719 16.260878,1.05270175 C15.7049458,1.47375439 11.8134203,4.42112281 11.4659627,4.70182456 C11.0490136,4.91235088 9.93714915,5.6842807 9.7981661,5.82463158 C9.65918305,5.96498246 9.45070847,6.24568421 9.31172542,6.52638596 C9.31172542,6.5965614 9.2422339,6.80708772 9.17274237,6.9474386 C9.10325085,7.22814035 9.03375932,7.50884211 8.9642678,7.71936842 L8.9642678,7.78954386 L8.9642678,7.8597193 C8.9642678,7.8597193 8.9642678,7.92989474 8.89477627,7.92989474 C9.17274237,8.07024561 9.45070847,8.35094737 9.58969153,8.63164912" id="Fill-30" fill="#4D4D4D"></path>
            <g id="Group-34" transform="translate(8.338983, 0.631579)">
                <mask id="mask-10" fill="white">
                    <use xlink:href="#path-9"></use>
                </mask>
                <g id="Clip-33"></g>
                <polygon id="Fill-32" fill="#FFFFFF" mask="url(#mask-10)" points="-2.71016949 11.2280702 11.4661017 11.2280702 11.4661017 -2.73684211 -2.71016949 -2.73684211"></polygon>
            </g>
            <path d="M8.47810508,8.21052632 L8.40861356,8.21052632 C7.99166441,8.21052632 7.64420678,8.56140351 7.64420678,8.98245614 L7.64420678,9.05263158 L7.64420678,9.12280702 C7.71369831,9.47368421 8.06115593,9.68421053 8.40861356,9.68421053 L8.47810508,9.68421053 L8.54759661,9.68421053 C8.89505424,9.61403509 9.17302034,9.33333333 9.24251186,8.98245614 L9.24251186,8.9122807 L9.24251186,8.84210526 C9.17302034,8.49122807 8.89505424,8.21052632 8.54759661,8.14035088 C8.61708814,8.21052632 8.54759661,8.21052632 8.47810508,8.21052632" id="Fill-35" fill="#4D4D4D"></path>
            <g id="Group-39" transform="translate(7.644068, 7.649123)">
                <mask id="mask-12" fill="white">
                    <use xlink:href="#path-11"></use>
                </mask>
                <g id="Clip-38"></g>
                <polygon id="Fill-37" fill="#FFFFFF" mask="url(#mask-12)" points="-3.12711864 5.26315789 4.86440678 5.26315789 4.86440678 -2.66666667 -3.12711864 -2.66666667"></polygon>
            </g>
            <g id="Group-47" transform="translate(24.322034, 0.631579)">
                <path d="M1.38983051,2.52617544 L1.52881356,2.66652632 C2.71016949,3.92968421 5.42033898,6.87705263 5.55932203,7.01740351 C5.69830508,7.08757895 5.90677966,7.22792982 6.04576271,7.29810526 C6.11525424,7.29810526 6.18474576,7.3682807 6.25423729,7.3682807 C6.39322034,7.43845614 6.60169492,7.57880702 6.81016949,7.71915789 C6.94915254,7.78933333 7.08813559,7.92968421 7.15762712,7.99985965 C7.29661017,7.64898246 7.57457627,7.43845614 7.9220339,7.29810526 C7.9220339,7.29810526 7.9220339,7.22792982 7.85254237,7.22792982 C7.78305085,7.01740351 7.6440678,6.66652632 7.57457627,6.24547368 C7.50508475,6.10512281 7.50508475,5.89459649 7.43559322,5.82442105 C7.36610169,5.5437193 7.15762712,5.26301754 7.01864407,5.12266667 C6.87966102,4.98231579 5.76779661,4.21038596 5.35084746,3.99985965 C5.00338983,3.78933333 1.11186441,0.841964912 0.555932203,0.350736842 C0.416949153,0.420912281 0.208474576,0.701614035 0.138983051,0.701614035 C0.0694915254,0.771789474 1.58206781e-15,0.841964912 0.138983051,0.982315789 C0.138983051,1.19284211 0.694915254,1.75424561 1.38983051,2.52617544" id="Fill-40" fill="#FFFFFF"></path>
                <g id="Group-44" transform="translate(8.338983, 8.421053)">
                    <mask id="mask-14" fill="white">
                        <use xlink:href="#path-13"></use>
                    </mask>
                    <g id="Clip-43"></g>
                    <path d="M7.92231186,7.22807018 C7.85212542,7.15789474 7.57485424,6.87719298 7.15721017,6.45614035 C6.74095593,6.03508772 6.18502373,5.47368421 5.62839661,4.84210526 C4.2385661,3.36842105 2.50127797,1.54385965 2.36298983,1.40350877 C2.22400678,1.33333333 1.87654915,1.05263158 1.45890508,0.771929825 C1.25043051,0.631578947 1.04265085,0.49122807 0.902972881,0.421052632 C0.763989831,0.771929825 0.416532203,0.98245614 0.000277966102,1.05263158 L0.139261017,1.61403509 C0.278244068,2.10526316 0.416532203,2.66666667 0.416532203,2.80701754 C0.486718644,3.01754386 0.763989831,3.36842105 0.973159322,3.50877193 C1.04265085,3.57894737 1.39010847,3.78947368 2.0155322,4.21052632 C3.40536271,5.19298246 5.97585424,6.94736842 6.11483729,7.01754386 C6.18502373,7.0877193 6.39349831,7.15789474 6.60197288,7.29824561 C6.80975254,7.43859649 7.36568475,7.85964912 7.43587119,7.85964912 C7.5046678,7.85964912 7.85212542,7.71929825 7.99180339,7.50877193 C7.99180339,7.36842105 7.99180339,7.29824561 7.92231186,7.22807018" id="Fill-42" fill="#FFFFFF" mask="url(#mask-14)"></path>
                </g>
                <path d="M7.36582373,8.28070175 L7.36582373,8.35087719 L7.36582373,8.49122807 C7.43601017,8.84210526 7.71328136,9.12280702 8.06073898,9.19298246 L8.13092542,9.19298246 L8.19972203,9.19298246 C8.54717966,9.19298246 8.89463729,8.9122807 8.96482373,8.63157895 L8.96482373,8.56140351 L8.96482373,8.49122807 C8.96482373,8.07017544 8.6173661,7.71929825 8.19972203,7.71929825 L8.13092542,7.71929825 L8.06073898,7.71929825 C7.71328136,7.64912281 7.36582373,7.92982456 7.36582373,8.28070175" id="Fill-45" fill="#4D4D4D"></path>
            </g>
            <g id="Group-50" transform="translate(31.271186, 7.649123)">
                <mask id="mask-16" fill="white">
                    <use xlink:href="#path-15"></use>
                </mask>
                <use id="Clip-49" fill="#FFFFFF" xlink:href="#path-15"></use>
                <polygon id="Fill-48" fill="#FFFFFF" mask="url(#mask-16)" points="-2.77966102 5.26315789 5.21186441 5.26315789 5.21186441 -2.66666667 -2.77966102 -2.66666667"></polygon>
            </g>
            <g id="Group-64" transform="translate(0.694915, 22.385965)">
                <path d="M6.94915254,8.56168421 L7.01864407,8.63185965 C7.08813559,8.28098246 7.36610169,8.07045614 7.6440678,7.93010526 C7.57457627,7.78905263 7.43559322,7.64870175 7.36610169,7.50905263 L7.15762712,7.15817544 C7.08813559,7.08729825 7.01864407,6.94694737 7.01864407,6.80729825 C6.94915254,6.66694737 6.87966102,6.45642105 6.81016949,6.31607018 C6.74067797,6.1757193 4.3779661,3.64940351 2.98813559,2.17501754 L2.84915254,1.96519298 C1.94576271,0.982035088 1.45932203,0.491508772 1.38983051,0.420631579 C1.25084746,0.280280702 1.18135593,0.351157895 1.11186441,0.351157895 C1.04237288,0.351157895 0.76440678,0.561684211 0.625423729,0.631157895 C0.972881356,1.19326316 3.5440678,5.2634386 3.75254237,5.61431579 C3.96101695,6.03466667 4.58644068,7.15817544 4.72542373,7.29782456 C4.86440678,7.43817544 5.14237288,7.71957895 5.42033898,7.78905263 C5.48983051,7.93010526 5.62881356,7.93010526 5.83728814,8.07045614 C6.11525424,8.21080702 6.46271186,8.35045614 6.67118644,8.42133333 C6.81016949,8.49080702 6.94915254,8.49080702 6.94915254,8.56168421" id="Fill-51" fill="#FFFFFF"></path>
                <g id="Group-55" transform="translate(7.644068, 9.122807)">
                    <mask id="mask-18" fill="white">
                        <use xlink:href="#path-17"></use>
                    </mask>
                    <g id="Clip-54"></g>
                    <path d="M6.81003051,6.59621053 C6.74053898,6.52603509 6.39308136,5.89445614 5.9761322,5.05305263 C5.48969153,4.21094737 4.93375932,3.29866667 4.51681017,2.52603509 L4.30833559,2.17515789 C4.03036949,1.68392982 3.82189492,1.33305263 3.82189492,1.26287719 C3.75240339,1.05305263 3.40494576,0.771649123 3.19647119,0.702175439 C3.12697966,0.702175439 3.05748814,0.702175439 2.98799661,0.631298246 C2.71003051,0.561122807 2.29308136,0.42077193 1.94562373,0.351298246 C1.80664068,0.280421053 1.66765763,0.210245614 1.52867458,0.14077193 C1.3202,0.491649123 0.972742373,0.771649123 0.486301695,0.771649123 C0.486301695,0.771649123 0.486301695,0.842526316 0.55579322,0.842526316 C0.55579322,0.912 0.625284746,0.912 0.625284746,0.982175439 C0.694776271,1.12252632 0.764267797,1.19340351 0.833759322,1.33305263 C1.0422339,1.68392982 1.3202,2.17515789 1.38969153,2.31550877 C1.45918305,2.4565614 3.05748814,4.21094737 4.37782712,5.61445614 L4.51681017,5.8242807 C5.62867458,7.0874386 6.60155593,8.14007018 6.74053898,8.35059649 C6.81003051,8.42147368 6.87952203,8.42147368 6.94901356,8.42147368 C7.22697966,8.35059649 7.43545424,7.9997193 7.43545424,7.9997193 C7.43545424,7.92954386 7.08799661,7.36884211 7.01850508,7.15831579 C6.87952203,6.87691228 6.81003051,6.7365614 6.81003051,6.59621053" id="Fill-53" fill="#FFFFFF" mask="url(#mask-18)"></path>
                </g>
                <path d="M8.96433729,9.05235088 L8.96433729,8.98217544 L8.96433729,8.91270175 L8.96433729,8.63129825 C8.96433729,8.56182456 8.89484576,8.49094737 8.82535424,8.42147368 C8.68637119,8.28042105 8.54738814,8.14007018 8.33891356,8.07059649 L8.06094746,8.07059649 L7.99145593,8.07059649 L7.92196441,8.07059649 C7.85247288,8.07059649 7.78298136,8.14007018 7.71348983,8.14007018 C7.50501525,8.28042105 7.3660322,8.42147368 7.3660322,8.63129825 L7.3660322,8.84182456 L7.3660322,8.98217544 C7.3660322,9.05235088 7.3660322,9.12322807 7.43552373,9.12322807 C7.43552373,9.19270175 7.43552373,9.19270175 7.50501525,9.19270175 C7.57450678,9.26357895 7.64399831,9.40322807 7.78298136,9.40322807 C7.85247288,9.40322807 7.92196441,9.47410526 7.92196441,9.47410526 L8.06094746,9.47410526 L8.13043898,9.47410526 C8.40840508,9.68392982 8.82535424,9.47410526 8.96433729,9.05235088" id="Fill-56" fill="#FFFFFF"></path>
                <path d="M30.4371492,9.19284211 C30.3676576,9.2637193 30.2286746,9.33319298 30.0202,9.40336842 C29.6727424,9.5437193 29.2557932,9.61459649 29.0473186,9.68407018 L28.9778271,9.68407018 C28.9083356,9.68407018 28.8388441,9.68407018 28.8388441,9.75424561 C28.6303695,9.82442105 28.2829119,10.1752982 28.2134203,10.3163509 C28.2134203,10.3858246 27.9354542,10.8068772 27.5879966,11.3689825 L27.4490136,11.5086316 C26.6853017,12.9121404 25.1557932,15.5086316 25.0863017,15.6489825 C25.0168102,15.7191579 24.9480136,15.930386 24.8083356,16.1402105 C24.6693525,16.3507368 24.3913864,16.9121404 24.3913864,16.9830175 C24.3913864,17.0524912 24.6005559,17.3338947 24.8778271,17.4033684 C24.9480136,17.4033684 25.0168102,17.4033684 25.0863017,17.3338947 C25.2252847,17.1928421 26.1286746,16.210386 27.1015559,15.0875789 L27.3100305,14.8777544 C28.6303695,13.4742456 30.3676576,11.5086316 30.4371492,11.3689825 C30.5073356,11.2279298 30.7846068,10.7367018 30.9930814,10.3858246 L31.1320644,10.1051228 C31.2022508,10.0349474 31.2710475,9.89459649 31.2710475,9.82442105 C31.0625729,9.82442105 30.8547932,9.75424561 30.7151153,9.68407018 C30.6456237,9.5437193 30.5073356,9.40336842 30.4371492,9.19284211" id="Fill-58" fill="#FFFFFF"></path>
                <path d="M38.4286746,0.280421053 C38.3591831,0.280421053 38.3591831,0.210245614 38.2896915,0.210245614 C38.2896915,0.210245614 38.2202,0.210245614 38.1514034,0.280421053 C38.0812169,0.351298246 37.5252847,0.982175439 36.6913864,1.8242807 C35.440539,3.15831579 32.799861,6.03480702 32.7303695,6.17515789 C32.660878,6.31621053 32.5920814,6.4565614 32.5218949,6.66708772 C32.4524034,6.8074386 32.3829119,6.94708772 32.3829119,7.0874386 L32.1744373,7.43831579 C32.1049458,7.57866667 32.0354542,7.7197193 31.8971661,7.86007018 C31.9659627,7.86007018 31.9659627,7.92954386 32.0354542,7.92954386 C32.3134203,8.07059649 32.4524034,8.28042105 32.5218949,8.56182456 L32.5920814,8.49094737 C32.660878,8.42147368 32.7303695,8.42147368 32.8693525,8.35059649 C33.0778271,8.28042105 33.4252847,8.14007018 33.7032508,7.9997193 L33.7727424,7.9997193 C33.9819119,7.92954386 34.1202,7.86007018 34.1896915,7.78919298 C34.4676576,7.64884211 34.7456237,7.43831579 34.8846068,7.29796491 C35.0242847,7.15831579 35.6490136,6.03480702 35.8574881,5.61445614 C36.0666576,5.19270175 38.5676576,1.19340351 38.9846068,0.631298246 C38.7761322,0.491649123 38.498861,0.280421053 38.4286746,0.280421053" id="Fill-60" fill="#FFFFFF"></path>
                <path d="M31.7577661,9.47382456 C31.8272576,9.47382456 31.8967492,9.40294737 31.8967492,9.40294737 C31.9662407,9.33347368 32.1052237,9.26329825 32.1747153,9.19312281 L32.2442068,9.12294737 C32.2442068,9.05207018 32.3136983,8.98259649 32.3136983,8.98259649 L32.3136983,8.84224561 L32.3136983,8.6317193 C32.2442068,8.42119298 32.1052237,8.28084211 31.9662407,8.14049123 C31.8967492,8.07031579 31.8272576,8.07031579 31.7577661,8.07031579 L31.6875797,8.07031579 L31.6187831,8.07031579 L31.5492915,8.07031579 L31.340122,8.07031579 C31.2713254,8.07031579 31.1323424,8.14049123 31.0628508,8.21066667 C30.9926644,8.28084211 30.9238678,8.28084211 30.9238678,8.35031579 L30.8543763,8.42119298 C30.7848847,8.49136842 30.7848847,8.56154386 30.7848847,8.6317193 L30.7848847,8.91242105 L30.7848847,8.98259649 L30.7848847,9.05207018 L30.7848847,9.12294737 C30.8543763,9.33347368 30.9926644,9.47382456 31.1323424,9.544 C31.340122,9.61417544 31.4798,9.68435088 31.6875797,9.68435088 L31.7577661,9.68435088 C31.6875797,9.544 31.6875797,9.544 31.7577661,9.47382456" id="Fill-62" fill="#FFFFFF"></path>
            </g>
        </g>
    </g>
</svg>