<?xml version="1.0" encoding="UTF-8"?>
<svg width="50px" height="50px" viewBox="0 0 50 50" version="1.1" xmlns="http://www.w3.org/2000/svg" xmlns:xlink="http://www.w3.org/1999/xlink">
    <!-- Generator: Sketch 49.1 (51147) - http://www.bohemiancoding.com/sketch -->
    <title>-g-icon_mavic_blue</title>
    <desc>Created with Sketch.</desc>
    <defs>
        <polygon id="path-1" points="25.0001042 0 50 0 50 50 25.0001042 50 0.000208333333 50 0.000208333333 0"></polygon>
    </defs>
    <g id="-g-icon_mavic_blue" stroke="none" stroke-width="1" fill="none" fill-rule="evenodd">
        <g id="Group-3">
            <mask id="mask-2" fill="white">
                <use xlink:href="#path-1"></use>
            </mask>
            <g id="Clip-2"></g>
            <path d="M40.4960417,50 L9.504375,50 C4.25541667,50 0.000208333333,45.7447917 0.000208333333,40.4958333 L0.000208333333,9.50416667 C0.000208333333,4.25520833 4.25541667,0 9.504375,0 L40.4960417,0 C45.745,0 50.0002083,4.25520833 50.0002083,9.50416667 L50.0002083,40.4958333 C50.0002083,45.7447917 45.745,50 40.4960417,50" id="Fill-1" fill="#4A90E2" mask="url(#mask-2)"></path>
        </g>
        <g id="icon_MAVIC" transform="translate(3.000000, 7.000000)" fill="#FFFFFF">
            <path d="M21.813192,16.8549674 C21.4454272,16.8549674 21.1463414,16.5588417 21.1463414,16.1947169 C21.1463414,15.830592 21.4454272,15.5366599 21.813192,15.5366599 C22.1809568,15.5366599 22.4800426,15.830592 22.4800426,16.1947169 C22.4800426,16.5588417 22.1809568,16.8549674 21.813192,16.8549674 Z M21.813192,17.905665 C21.7600212,17.905665 21.7157122,17.8642075 21.7157122,17.8093694 C21.7157122,17.7565055 21.7600212,17.712635 21.813192,17.712635 C21.8663628,17.712635 21.9106718,17.7565055 21.9106718,17.8093694 C21.9106718,17.8642075 21.8663628,17.905665 21.813192,17.905665 Z M21.813192,18.605399 C21.7600212,18.605399 21.7157122,18.5615285 21.7157122,18.508884 C21.7157122,18.4562394 21.7600212,18.4125883 21.813192,18.4125883 C21.8663628,18.4125883 21.9106718,18.4562394 21.9106718,18.508884 C21.9106718,18.5615285 21.8663628,18.605399 21.813192,18.605399 Z M21.813192,19.3402293 C21.7600212,19.3402293 21.7157122,19.2963588 21.7157122,19.2439336 C21.7157122,19.1890955 21.7600212,19.1471992 21.813192,19.1471992 C21.8663628,19.1471992 21.9106718,19.1890955 21.9106718,19.2439336 C21.9106718,19.2963588 21.8663628,19.3402293 21.813192,19.3402293 Z M21.813192,20.0268021 C21.7600212,20.0268021 21.7157122,19.983151 21.7157122,19.9305064 C21.7157122,19.8776425 21.7600212,19.833772 21.813192,19.833772 C21.8663628,19.833772 21.9106718,19.8776425 21.9106718,19.9305064 C21.9106718,19.983151 21.8663628,20.0268021 21.813192,20.0268021 Z M23.4971559,23.308313 C23.5168734,23.1021218 23.5348185,22.9268593 23.5456742,22.808409 C23.5744751,22.5361928 23.6653086,20.7969481 23.7494957,18.9892656 C23.8336828,17.1796088 23.9156545,15.3019529 23.9267317,14.7559849 C23.9311626,14.5190844 23.937809,14.0297093 23.9466708,13.4001681 C23.8671361,13.3126466 23.8181746,13.2992661 23.7339875,13.290492 C23.6054914,13.2773308 22.2252658,13.2641697 21.8109766,13.2641697 C21.3966873,13.2641697 20.0164617,13.2773308 19.8879656,13.290492 C19.8037785,13.2992661 19.7550386,13.3126466 19.6755039,13.4001681 C19.6819287,14.0297093 19.6907905,14.5190844 19.6952214,14.7559849 C19.7195914,15.8481402 20.0142463,22.2641959 20.0740634,22.808409 C20.0940025,22.9816974 20.1228033,23.2756295 20.1538196,23.6024645 C20.3886574,23.6461156 21.1020324,23.6263739 21.4520736,23.6175998 L21.6049397,23.6134321 C21.7046349,23.6110192 21.7843912,23.6088257 21.8355681,23.6088257 C21.8885173,23.6088257 21.970489,23.6110192 22.0679688,23.6134321 L22.1986804,23.6175998 C22.5664452,23.6285674 23.2355112,23.6461156 23.4681335,23.604658 L23.4971559,23.308313 Z" id="Fill-1"></path>
            <path d="M19.5224384,25.6230879 C19.5224384,25.7019486 19.5882133,25.76671 19.6661687,25.76671 C19.7465602,25.76671 19.8098989,25.7019486 19.8098989,25.6230879 C19.8098989,25.5468559 19.7465602,25.4820946 19.6661687,25.4820946 C19.5882133,25.4820946 19.5224384,25.5468559 19.5224384,25.6230879" id="Fill-3"></path>
            <path d="M22.047919,23.8260503 C21.9573071,23.8238568 21.8841972,23.8216632 21.8354573,23.8216632 C21.7887113,23.8216632 21.7156014,23.8238568 21.6272049,23.8260503 L21.5184263,23.8282438 C20.8783827,23.8479855 20.4239938,23.8523726 20.1738695,23.8194697 L20.1891561,23.9598552 C20.2445423,24.5323648 20.3067965,25.1816477 20.3333819,25.2913239 C20.39763,25.5611272 20.4417174,25.8046083 20.4660874,26.0173801 L20.483811,26.0173801 C20.5790753,26.0173801 20.7476711,26.0195736 21.0644805,26.0283477 C21.4165156,26.0393153 21.6537904,26.0458959 21.8130812,26.0458959 C21.9703782,26.0458959 22.2140778,26.0393153 22.5599096,26.0283477 C22.894221,26.0195736 23.0583859,26.0151866 23.1556442,26.0173801 C23.1780202,25.8089954 23.2245447,25.5655143 23.2887928,25.2913239 C23.3173721,25.166293 23.3949128,24.3481088 23.4460897,23.8194697 C23.2245447,23.8479855 22.829973,23.850179 22.1522667,23.8282438 L22.047919,23.8260503 Z" id="Fill-5"></path>
            <path d="M24.1770555,23.6724598 C24.2058563,23.6614922 24.2725414,23.6373634 24.2966898,23.6176217 C24.4296168,23.5189131 24.4827876,23.4311722 24.5140255,23.3107478 C24.2725414,23.3982694 23.8447379,23.6373634 23.6697173,23.7494524 C23.6564246,23.8983927 23.6409165,24.0519393 23.6254083,24.2010989 C23.6519937,24.1374867 23.6763637,24.0804551 23.6985182,24.0343911 C23.8070752,23.8150388 24.0286203,23.7294914 24.1770555,23.6724598" id="Fill-7"></path>
            <path d="M19.3253519,23.6176217 C19.3495004,23.6373634 19.4159639,23.6614922 19.4447647,23.6724598 C19.5931999,23.7294914 19.8147449,23.8150388 19.923302,24.0343911 C19.9456781,24.0804551 19.9698265,24.1374867 19.9964119,24.2010989 C19.9809037,24.0519393 19.967611,23.8983927 19.9523244,23.7494524 C19.7817347,23.6397763 19.3495004,23.3982694 19.1082378,23.3107478 C19.1368171,23.429198 19.1902095,23.5167196 19.3253519,23.6176217" id="Fill-9"></path>
            <path d="M23.6941537,23.4839703 C23.9021845,23.3631072 24.3186892,23.1308131 24.5537485,23.0779492 L24.5579579,23.0340787 C24.5803339,22.8653967 24.6332832,22.0340514 24.6733828,21.3738009 C24.70883,20.7286857 24.7329784,20.2397493 24.7329784,20.0927833 C24.7329784,19.7220778 24.7642163,16.2626722 24.7708626,15.979927 C24.7752935,15.8987667 24.7841553,15.8239675 24.8018789,15.7493877 C24.6822446,15.6770015 24.5956205,15.5212613 24.5515331,15.3065154 C24.5138704,15.117653 24.3122644,14.3457522 24.1549674,13.8585706 C24.1505365,14.266566 24.1461056,14.5848462 24.1416747,14.7601087 C24.1173048,15.8461221 23.8202129,22.2729261 23.7606172,22.8303004 C23.7448875,22.9792406 23.7207391,23.214167 23.6941537,23.4839703" id="Fill-11"></path>
            <path d="M18.8201628,15.7518006 C18.8354494,15.821774 18.8467482,15.8987667 18.8489636,15.979927 C18.8578254,16.2299887 18.8888418,19.6692139 18.8888418,20.0927833 C18.8888418,20.2397493 18.9109963,20.7286857 18.9486589,21.3738009 C18.988537,22.0535738 19.0392708,22.8632032 19.0616469,23.0318852 L19.0682932,23.0779492 C19.3097773,23.1327872 19.7351438,23.3718813 19.927888,23.4861638 C19.9013026,23.214167 19.8769326,22.9792406 19.8614245,22.8303004 C19.8016073,22.2863066 19.504737,15.8568704 19.4801455,14.7601087 C19.4759361,14.5848462 19.4712837,14.266566 19.4648589,13.8585706 C19.3097773,14.3457522 19.1059559,15.124453 19.0682932,15.3065154 C19.0239842,15.5278419 18.9375817,15.6816079 18.8201628,15.7518006" id="Fill-13"></path>
            <path d="M22.6794553,26.2419591 L22.5664673,26.2448052 C22.2762433,26.2561899 21.999312,26.2675745 21.8132142,26.2675745 C21.6271163,26.2675745 21.350185,26.2561899 21.0577456,26.2448052 L20.9425421,26.2419591 C20.7185601,26.2334206 20.4883748,26.2248822 20.4130495,26.2305745 C20.3776023,26.2647283 20.3131327,26.3273437 20.2491062,26.3899591 C20.6545336,26.4269591 21.4299412,26.4525745 21.8109987,26.4525745 C22.1898407,26.4525745 22.9674638,26.4269591 23.3706758,26.3899591 C23.3086432,26.3301899 23.2466106,26.2675745 23.2067325,26.2305745 C23.1336226,26.2248822 22.9032158,26.2334206 22.6794553,26.2419591" id="Fill-15"></path>
            <path d="M24.2257289,24.2384107 C24.1880663,24.2581524 24.0819462,24.3480869 23.9487976,24.7933721 L23.9423728,24.8131138 C23.9047101,24.9337576 23.8604011,25.1640776 23.818086,25.4121651 C23.8604011,25.3812364 23.9133504,25.3614947 23.9711737,25.3614947 C24.1085316,25.3614947 24.2235135,25.4755579 24.2235135,25.6115563 C24.2235135,25.7497483 24.1085316,25.861618 23.9711737,25.861618 C23.8869865,25.861618 23.8116612,25.819941 23.7649152,25.7563289 C23.7338989,25.9712942 23.709529,26.1687113 23.6984517,26.2915486 C23.9888973,26.1643242 24.4627821,25.8045864 24.5292456,25.6927167 C24.5580465,25.6422657 24.5580465,25.6027822 24.5604835,25.5545247 C24.5604835,25.4777514 24.5626989,25.3900105 24.6801178,25.2562056 L24.7042662,25.2301026 C24.7177805,25.2145286 24.7288577,25.203561 24.7397134,25.1882063 C24.7709513,25.107046 24.8615632,23.9949296 24.9169494,23.2140353 C24.8682095,23.7295133 24.6555263,24.0366066 24.2257289,24.2384107" id="Fill-17"></path>
            <path d="M25.0779611,16.9318723 C25.0664627,16.5480057 25.0549643,16.0917529 25.0549643,15.7756662 C25.0319674,15.8373042 25.0175944,15.905084 25.0147198,15.9862444 C25.006096,16.2672347 24.9658515,19.722034 24.9658515,20.0927394 C24.9658515,20.3033176 24.911234,21.0598638 24.8882372,21.3759505 C24.8882372,21.4612786 24.9227325,22.6372264 24.9342309,22.8478047 C24.9371055,22.9331327 24.9371055,23.0164866 24.9342309,23.0934793 C24.9601023,22.7949408 24.97735,22.5604531 24.9802246,22.4814863 C24.9802246,22.4354223 25.0923342,17.98257 25.0923342,17.5943163 C25.0923342,17.4736726 25.0865849,17.221198 25.0779611,16.9318723" id="Fill-19"></path>
            <path d="M24.1255742,25.6230879 C24.1255742,25.5468559 24.0627677,25.4820946 23.9830518,25.4820946 C23.9033358,25.4820946 23.8381137,25.5468559 23.8381137,25.6230879 C23.8381137,25.7019486 23.9033358,25.76671 23.9830518,25.76671 C24.0627677,25.76671 24.1255742,25.7019486 24.1255742,25.6230879" id="Fill-21"></path>
            <path d="M21.813192,15.6551759 C21.5118908,15.6551759 21.2681912,15.8964635 21.2681912,16.1947827 C21.2681912,16.4931018 21.5118908,16.7365829 21.813192,16.7365829 C22.1144933,16.7365829 22.3581928,16.4931018 22.3581928,16.1947827 C22.3581928,15.8964635 22.1144933,15.6551759 21.813192,15.6551759" id="Fill-23"></path>
            <path d="M18.1622405,14.9816985 C18.3370395,15.1198904 18.492121,15.2407536 18.5585846,15.3304687 L18.6117554,15.2997593 L18.6363469,15.3392428 C18.6671416,15.3918873 18.7070197,15.457693 18.7449039,15.5366599 C18.7914284,15.4818218 18.8333004,15.3831132 18.8598858,15.2624694 C18.8866928,15.126471 19.2786059,13.5670953 19.4405554,13.3519106 L19.4602729,13.3277819 C19.4447647,11.9480557 19.4294781,10.138399 19.4226102,8.81592376 C19.4206163,8.4011285 19.4184009,8.02186832 19.4184009,7.70161392 C19.4184009,7.3657855 19.4206163,7.08282099 19.4226102,6.90075855 C19.3984618,6.93585493 19.3716549,6.97314482 19.345291,7.01043472 C19.2876893,7.09620148 19.2278721,7.18372306 19.165618,7.26290925 C19.0617133,7.3943013 18.942079,7.55004146 18.8155768,7.7279362 L18.8025056,7.74767791 L18.2129743,7.74767791 C18.2021186,7.74767791 18.1910413,7.75425848 18.1886043,7.75842617 C18.1863889,7.77816788 18.1179315,8.4011285 18.0778318,8.76985977 L18.1068542,8.76985977 L18.071407,8.83763964 C18.0401692,8.89467125 18.0182362,8.93634819 18.0093744,8.9606963 C17.9316121,9.17544223 17.6325263,13.5449407 17.6305324,14.4596399 C17.6305324,14.5627355 17.9382584,14.8040231 18.1622405,14.9816985" id="Fill-25"></path>
            <path d="M19.6375311,8.81583602 C19.6441774,10.36227 19.6641165,12.290377 19.6729783,13.1326899 C19.7350109,13.0995677 19.797265,13.0866259 19.8657225,13.0778518 C20.0119422,13.0646907 21.4253996,13.0515295 21.8111095,13.0515295 C22.1963763,13.0515295 23.6100552,13.0646907 23.753838,13.0778518 C23.8247324,13.0866259 23.8869865,13.0995677 23.9487976,13.1326899 C23.9643058,11.7310285 23.97782,10.0461833 23.9842448,8.81583602 C23.9864603,8.40104076 23.9864603,8.02178058 23.9864603,7.70152618 C23.9864603,7.02372747 23.9842448,6.79318817 23.9800355,6.7254083 C23.6031873,6.65302203 22.3293033,6.58260993 21.8111095,6.58260993 C21.2902571,6.58260993 20.0163731,6.65302203 19.6421835,6.7254083 C19.6375311,6.79318817 19.6331002,7.0213146 19.6353156,7.70152618 C19.6353156,8.02178058 19.6353156,8.40104076 19.6375311,8.81583602" id="Fill-27"></path>
            <path d="M23.7428272,24.7319535 C23.8247988,24.4599566 23.9444332,24.1353151 24.1349619,24.0475742 C24.3279276,23.9576397 24.4850031,23.8391895 24.5871353,23.6373853 C24.5448202,23.6878364 24.4916494,23.7382874 24.4274014,23.7887385 C24.3833139,23.8218607 24.3232752,23.8435765 24.2548178,23.8698988 C24.1238847,23.9227627 23.9621568,23.9863749 23.8912624,24.126541 C23.727319,24.4665372 23.4348796,25.4097522 23.3639852,26.0809703 C23.3994324,26.107512 23.4459568,26.142389 23.4946967,26.1798982 C23.5367903,25.7960316 23.6519937,25.0282985 23.7361808,24.7516952 L23.7428272,24.7319535 Z" id="Fill-29"></path>
            <path d="M19.6531278,25.8617057 C19.5135545,25.8617057 19.4005665,25.7496167 19.4005665,25.6114247 C19.4005665,25.4754263 19.5135545,25.3615824 19.6531278,25.3615824 C19.7085141,25.3615824 19.7592479,25.3791306 19.801563,25.4096206 C19.7592479,25.1619718 19.7151605,24.9338454 19.6797132,24.8151758 L19.6708514,24.7912663 C19.5401399,24.3481746 19.4337982,24.2580208 19.3939201,24.2384985 C18.9663382,24.0366943 18.7514395,23.7274075 18.7049151,23.2073232 C18.7470086,23.8239226 18.8201185,24.668429 18.8932283,25.1926811 C18.8976592,25.2363322 18.9043056,25.2409386 18.9264601,25.2538804 C18.9377589,25.2628739 18.9508301,25.2694544 18.9619073,25.280422 C19.0261554,25.3372343 19.0372326,25.4293623 19.0505253,25.5192967 C19.0593871,25.5829089 19.0682489,25.6487146 19.0926189,25.6925851 C19.1568669,25.8022612 19.6354042,26.1622184 19.9211973,26.2916363 C19.9101201,26.1709925 19.8857501,25.9757689 19.8569493,25.7608037 C19.8104248,25.822003 19.737315,25.8617057 19.6531278,25.8617057" id="Fill-31"></path>
            <path d="M18.7346767,22.8456112 C18.7430131,22.6832904 18.7634228,21.935299 18.7749212,21.5709548 L18.7806704,21.373757 C18.7315147,20.7178935 18.7030561,20.2397055 18.7030561,20.0927394 C18.7030561,19.6713636 18.6628116,16.2409125 18.6513132,15.9862444 C18.6481511,15.9074969 18.6337781,15.8373042 18.6139433,15.7778597 C18.6139433,16.0981141 18.5992828,16.5589733 18.5909465,16.9470076 C18.5823227,17.2299721 18.576286,17.4736726 18.576286,17.5943163 C18.576286,17.98257 18.6858084,22.4354223 18.6886831,22.4792928 C18.6915577,22.5823884 18.7116799,22.8565788 18.7430131,23.2073232 C18.7315147,23.0956728 18.7286401,22.9772226 18.7346767,22.8456112" id="Fill-33"></path>
            <path d="M19.7284088,24.1265849 C19.6597299,23.9861994 19.498002,23.9225872 19.3695059,23.8699427 C19.298833,23.8436204 19.2387943,23.8216852 19.1944853,23.7887823 C19.1280218,23.7381119 19.077288,23.6878802 19.0349729,23.6374292 C19.1368836,23.839014 19.2941806,23.9574643 19.4869247,24.0476181 C19.677675,24.1375525 19.7948724,24.4600005 19.876844,24.7319973 L19.8834904,24.7517391 C19.9698929,25.0259295 20.0850964,25.7870821 20.1271899,26.1775292 L20.1316208,26.1731422 C20.1781453,26.1402393 20.2224543,26.1073365 20.2579015,26.0810142 C20.1850132,25.4076025 19.8945676,24.4643875 19.7284088,24.1265849" id="Fill-35"></path>
            <path d="M24.1616802,13.3256322 C24.168105,13.3344063 24.1727575,13.3409869 24.1791823,13.349761 C24.3431256,13.5691133 24.7354819,15.1265149 24.7618458,15.2625133 C24.7862157,15.3831571 24.8285308,15.4818656 24.8770492,15.5367037 C24.9127179,15.4599304 24.9523745,15.3963182 24.9858278,15.3392866 L25.0099762,15.2998032 L25.0611531,15.3305125 C25.1296105,15.2405781 25.2846921,15.1199343 25.4597126,14.9817423 C25.6834731,14.8040669 25.9916423,14.5627794 25.9916423,14.4596838 C25.9894268,13.5471781 25.6901195,9.17767963 25.6128003,8.96074017 C25.6039385,8.93200502 25.5727006,8.87716693 25.5507677,8.83768351 L25.5108895,8.76968429 L25.5416843,8.76968429 C25.5195298,8.55691253 25.4355642,7.77821175 25.4331272,7.75430235 C25.4309118,7.75430235 25.4178406,7.74750242 25.4087573,7.74750242 L24.8216629,7.74750242 L24.8061548,7.72776071 C24.6823111,7.5566659 24.5626768,7.39653869 24.4561136,7.26273377 C24.396518,7.18837333 24.3389163,7.10041305 24.281093,7.01925268 C24.2522922,6.97538222 24.2234913,6.9358988 24.1969059,6.8986089 C24.2015583,7.07409077 24.2015583,7.3504747 24.2015583,7.70143844 C24.2015583,8.02169284 24.2015583,8.40117237 24.1993429,8.81574828 C24.1926965,10.3229182 24.1727575,12.2815151 24.1616802,13.3256322" id="Fill-37"></path>
            <path d="M8.02201308,6.96891132 C7.63652471,6.96891132 7.39282516,7.11346451 7.15820896,7.32864915 C6.86111706,7.60283956 6.81237715,8.00842202 6.8145926,8.24334837 C7.22223548,7.87483645 7.80268349,7.31768153 8.15050921,6.97329837 C8.1062002,6.97110485 8.06189119,6.96891132 8.02201308,6.96891132" id="Fill-39"></path>
            <path d="M16.952383,12.7751017 L16.9900457,12.7597471 C17.1362654,12.6939414 17.2937839,12.6281357 17.3467332,12.6149745 C17.3932576,12.6040069 17.4621581,12.5996199 17.5040301,12.597207 L17.5197598,12.3056878 C17.0232774,12.0709808 10.2907451,8.90792013 10.091133,8.8201792 C10.0581228,8.80460518 10.0158077,8.78946987 9.96928324,8.77192168 C9.71029708,8.66882609 9.35804046,8.53041477 9.35804046,8.30250769 C9.36003437,8.1050906 9.23375369,7.80677142 9.10769456,7.57645148 C8.65352723,7.94474404 7.7361092,8.83772738 7.38407413,9.19088464 C7.57881222,9.28520614 7.88255048,9.33127013 8.09523372,9.34004422 C8.29218726,9.34881832 8.56269376,9.28739966 8.75986885,9.24133567 C8.80617176,9.23036806 8.85070231,9.22159397 8.88614952,9.2150134 C8.91495038,9.20843283 8.94375123,9.20601995 8.96812119,9.20601995 C9.07424126,9.20601995 9.15643447,9.25010977 9.24926185,9.3005608 C9.29578631,9.32688308 9.34674167,9.35298601 9.40456492,9.37952764 C9.45529874,9.40146288 9.91190307,9.62300873 10.6006866,9.9586178 C12.1982479,10.7327122 15.1713824,12.1762699 16.3898801,12.7290378 C16.5425247,12.7992305 16.7286225,12.9527771 16.8039478,13.0712274 C16.8593341,13.1567748 17.2625461,13.6788333 17.4331357,13.9003792 L17.4575057,13.4770292 L17.4555118,13.4770292 C17.419843,13.4770292 17.3821804,13.459481 17.3491702,13.4265782 C17.3290096,13.4046429 17.2516903,13.3147085 17.1340499,13.17871 C17.0567307,13.0865821 16.974759,12.9922605 16.95482,12.9722995 C16.9125049,12.9262355 16.8925658,12.8760038 16.9016492,12.8343269 C16.9082955,12.8077852 16.9260191,12.7860694 16.952383,12.7751017" id="Fill-41"></path>
            <path d="M0.398603841,15.2295447 C0.332140329,15.0365146 0.250168663,14.8042205 0.199434848,14.6614221 L0.046347223,14.8217687 C0.0332760655,14.836904 -0.0179008395,14.902929 0.00646911526,14.9553542 C0.0244142637,14.9862829 0.208075104,15.163739 0.451774652,15.3767301 C0.447343751,15.3655431 0.44291285,15.3526013 0.438703494,15.3416337 L0.398603841,15.2295447 Z" id="Fill-43"></path>
            <path d="M0.494023291,14.6286728 C0.469653337,14.5604542 0.447277287,14.4992549 0.429553684,14.4444169 L0.371951973,14.5124161 C0.420913427,14.641834 0.529248953,14.9511207 0.64245847,15.2691816 C0.657745078,15.3174391 0.673474776,15.3635031 0.686545934,15.400793 L0.739716744,15.3567032 C0.697844731,15.2185112 0.584635214,14.8940891 0.509309899,14.6747368 L0.494023291,14.6286728 Z" id="Fill-46"></path>
            <path d="M6.46663395,10.9434001 L6.50872751,10.7481765 C6.57984347,10.4171738 6.68374809,9.91485701 6.70833959,9.78324561 C6.74356526,9.59460261 6.86984593,9.40157255 7.13126908,9.13834976 L7.17336264,9.09645346 C7.31515147,8.9540938 7.65212148,8.62287178 8.00415655,8.28506918 C8.32340296,7.97995009 8.75984669,7.57436763 9.02348529,7.36795708 C9.09415816,7.313119 9.14289807,7.2804355 9.17834528,7.25828092 C9.32456501,7.17075934 10.7202988,6.17906745 10.7891993,6.08693947 C10.8246465,6.04087548 11.3915803,5.3652703 12.1760713,4.42885519 L12.7142042,3.78593351 C13.4122926,2.95700104 14.1631087,2.05963065 14.6593696,1.46759871 L14.3693672,0.436642752 C13.6493458,1.05521633 12.1251159,2.39326555 11.628855,2.85149257 C9.45106723,4.85637289 9.17413592,5.20294957 9.15641232,5.25778765 C9.08751181,5.46200467 8.96145268,6.0145532 8.94793843,6.20341556 C8.92799938,6.45786426 8.65992988,6.76254465 8.544948,6.88318843 L8.5272244,6.90073662 C8.50484835,6.9228912 8.47183814,6.95776822 8.42752913,7.00163869 C8.15059782,7.27582911 7.32179782,8.08545856 6.82332147,8.5219697 C6.66602449,8.6577488 6.55104261,8.74987678 6.48435756,8.78957955 C6.40017044,8.84222411 6.20100145,8.9453197 5.96815761,9.06793766 L5.93049495,9.08548584 C5.60061438,9.25877419 5.18831905,9.47395882 5.11099983,9.537571 C5.00908911,9.62092489 2.3594104,12.393319 0.589265505,14.2490397 C0.609204559,14.3106777 0.646645672,14.413554 0.686523779,14.5320042 L0.750771842,14.7140667 C0.821887801,14.9268384 0.883920413,15.1047332 0.92158307,15.2207706 C2.70036822,13.893689 6.28718247,11.1827135 6.46663395,10.9434001" id="Fill-48"></path>
            <polygon id="Fill-50" points="14.916517 1.1603519 14.6418011 0.219330397 14.5509677 0.287548972 14.8256835 1.26783454"></polygon>
            <path d="M15.2176632,0.796205094 L15.2400392,0.763521597 C15.2508949,0.747947581 15.2619722,0.732592918 15.2644092,0.728205871 C15.2644092,0.7262317 15.2508949,0.712851208 15.2400392,0.697496545 C15.1647139,0.596594472 15.0184942,0.432080223 14.889998,0.309242917 L15.0805268,0.960719343 C15.1689232,0.855649576 15.2112383,0.804979187 15.2176632,0.796205094" id="Fill-53"></path>
            <path d="M26.2529547,12.6148868 C26.30391,12.6282673 26.4545607,12.6918795 26.5897031,12.7508852 C26.618504,12.7618529 26.638443,12.770627 26.6473048,12.775014 C26.6738903,12.7859816 26.6916139,12.8079168 26.6982602,12.8342391 C26.707122,12.8759161 26.687183,12.9263671 26.6428739,12.9724311 C26.6251503,12.9923922 26.5586868,13.0689461 26.4833615,13.1569064 C26.3615117,13.2992661 26.2728937,13.4047745 26.2507392,13.4264904 C26.2175075,13.4596126 26.1798448,13.4771608 26.1443976,13.4771608 L26.1665521,13.9002915 C26.3393572,13.678965 26.7425692,13.1569064 26.79574,13.0711396 C26.8732808,12.9526894 27.0593786,12.7993621 27.2122447,12.7291694 C28.4307424,12.1761821 31.4038769,10.7328438 33.0012167,9.95633654 C33.6902218,9.62292099 34.1443891,9.40159449 34.1953445,9.3794399 C34.2551616,9.35311762 34.3039015,9.3270147 34.352863,9.30069242 C34.4678449,9.23708024 34.5675401,9.18421633 34.7159753,9.21492565 C34.7514225,9.22150622 34.7935161,9.23028032 34.842256,9.24124793 C35.0394311,9.28731192 35.3119315,9.34873058 35.5046757,9.33995648 C35.7195744,9.33118239 36.0208756,9.2851184 36.2180507,9.19101625 C36.0385992,9.01312151 35.6907735,8.6689577 35.3207933,8.31996814 C35.0682319,8.0808741 34.729268,7.76720026 34.4944303,7.57636374 C34.3681496,7.80668368 34.2420905,8.10500286 34.2420905,8.30263931 C34.2440844,8.53054638 33.8896123,8.6689577 33.6328416,8.77183394 C33.5860956,8.78960148 33.544002,8.80473679 33.5085548,8.82009146 C33.3113797,8.90805174 26.5786259,12.0711124 26.082365,12.3058194 L26.0978731,12.5973386 C26.1399667,12.5997515 26.2064302,12.6017257 26.2529547,12.6148868" id="Fill-55"></path>
            <path d="M36.4440267,7.32858334 C36.2089674,7.11361806 35.9677048,6.96884552 35.580001,6.96884552 C35.5401229,6.96884552 35.4958139,6.96884552 35.4515049,6.97323256 C35.7993306,7.31761572 36.3797786,7.87696417 36.7874215,8.24328257 C36.7874215,8.00857557 36.7386816,7.60277376 36.4440267,7.32858334" id="Fill-57"></path>
            <path d="M28.3842401,0.796205094 C28.3908865,0.804979187 28.437411,0.862010794 28.5193826,0.960719343 L28.7099114,0.309242917 C28.5791998,0.43646727 28.4307646,0.605368565 28.3618641,0.697496545 C28.3510084,0.712851208 28.3399311,0.730399395 28.3377157,0.735005793 C28.3377157,0.735005793 28.3487929,0.750141104 28.3598702,0.763521597 L28.3842401,0.796205094 Z" id="Fill-59"></path>
            <polygon id="Fill-61" points="28.7741151 1.26790035 29.0510464 0.287395425 28.9602129 0.219396202 28.6857186 1.16041771"></polygon>
            <path d="M30.8854837,3.78595544 C31.5058098,4.5251728 31.9777007,5.08890829 32.2989411,5.47277487 C32.6223968,5.85664145 32.792765,6.06283265 32.8104886,6.0869614 C32.8816045,6.17908938 34.2751228,7.17078127 34.4213426,7.25830285 C34.4634361,7.28243161 34.5143915,7.31972151 34.5764241,7.36797902 C35.045878,7.73671029 36.0718531,8.74134397 36.4285407,9.09647539 L36.4706342,9.13815234 C36.7320574,9.40159449 36.858338,9.59243102 36.8913482,9.78326755 C36.927017,9.9716912 37.1153303,10.8578746 37.1374848,10.954609 C37.3167147,11.1847096 40.8993196,13.8937109 42.6781048,15.2207925 C42.7182044,15.1047551 42.7780216,14.9268604 42.8511314,14.7140886 L42.9264568,14.4947363 C42.961904,14.39186 42.9929203,14.3038998 43.0104223,14.2490617 C41.309178,12.463753 38.5930357,9.62292099 38.4889096,9.53759293 C38.4045009,9.46718084 37.9040306,9.20856444 37.6337457,9.06795959 L37.5340504,9.01553438 C37.3413062,8.91441296 37.1906556,8.83566547 37.1175457,8.79157565 C37.0488668,8.74989871 36.9358788,8.65777073 36.7785818,8.52199164 C36.2756746,8.0808741 35.4493116,7.27585104 35.1743742,7.00166063 C35.1302867,6.95779016 35.0948395,6.92291314 35.072685,6.90075855 L35.0571768,6.88321037 C34.9131726,6.73207661 34.6716885,6.4445057 34.6539649,6.20343749 C34.6406722,6.01918153 34.5143915,5.4661943 34.447928,5.25780959 C34.4279889,5.20297151 34.1486206,4.85639482 31.9821316,2.85831443 C31.4703626,2.38648756 29.9461327,1.05063186 29.2327577,0.438638858 L28.9423121,1.46762065 C29.4387945,2.05965259 30.1896107,2.95702298 30.8854837,3.78595544" id="Fill-63"></path>
            <path d="M43.1723718,14.4444607 C43.1524327,14.4992988 43.1302782,14.5604981 43.1081237,14.6287167 L43.0859692,14.6945224 C43.006213,14.9204553 42.9020868,15.225355 42.8599933,15.3567471 L42.9131641,15.4006175 C42.9198104,15.3852629 42.9242413,15.367934 42.9308877,15.3503859 L43.0305829,15.0674213 C43.1169855,14.8217467 43.1923108,14.613362 43.2299735,14.5124599 L43.1723718,14.4444607 Z" id="Fill-65"></path>
            <path d="M43.5533628,14.8195532 C43.5489319,14.8149468 43.5312083,14.7954245 43.500192,14.7647151 L43.4027121,14.6614002 C43.3406795,14.8346885 43.2345595,15.1373947 43.161228,15.3438053 L43.1479353,15.3810952 C43.387204,15.1683234 43.5777327,14.986261 43.5976718,14.9531388 C43.6222633,14.8983007 43.5622246,14.8305208 43.5533628,14.8195532" id="Fill-67"></path>
            <path d="M8.80845367,30.50965 C9.00341331,30.6502549 9.22938926,30.7728728 9.55284502,30.7728728 C9.63924759,30.7728728 9.73451195,30.7640987 9.83664422,30.744357 C9.47973516,30.4701666 8.82196792,29.9722368 8.35650179,29.6432083 C8.38308719,29.8603671 8.47613611,30.270556 8.80845367,30.50965" id="Fill-69"></path>
            <path d="M17.6814877,23.6527619 C17.6194551,23.7799863 17.4532963,23.9554682 17.311286,24.0412349 C16.1860587,24.7253948 13.5496727,26.4253754 11.9742659,27.4411961 C11.2896917,27.8840684 10.8377398,28.175807 10.7867844,28.2043228 C10.7338352,28.2372257 10.6873107,28.267935 10.6449956,28.3008379 C10.5366601,28.3776112 10.4433896,28.4456104 10.292739,28.4324493 C10.2597288,28.4282816 10.2196291,28.4236752 10.1753201,28.4192881 C9.98036049,28.3995464 9.68814258,28.3688371 9.49296139,28.4017399 C9.28271515,28.4346428 8.98806024,28.5158031 8.80417786,28.6342534 C9.0277168,28.8075417 9.41763608,29.1080544 9.80312445,29.3932125 C10.2154198,29.6959187 10.514284,29.9043034 10.7114591,30.0293342 C10.8111544,29.7858531 10.899994,29.4765664 10.8734086,29.2791493 C10.8446077,29.0532163 11.1789192,28.8733474 11.4228403,28.741736 C11.4647123,28.7176073 11.5045904,28.695672 11.5380437,28.6781239 C11.6596719,28.6057376 14.1431918,27.048336 15.9598612,25.9098974 C16.6867505,25.4536446 17.3290096,25.0500363 17.7144979,24.8109423 C17.9094576,24.6859114 18.4367348,24.97765 18.6607168,25.1114549 L18.4367348,22.3936796 C18.157588,22.8499324 17.7213658,23.5672145 17.6814877,23.6527619" id="Fill-71"></path>
            <path d="M0.832832126,23.9269524 C0.841693927,23.9357264 0.883787486,23.9686293 0.954903444,24.0278544 L1.00120636,24.0651443 C1.04329992,23.8808884 1.11640978,23.5562469 1.16071879,23.3522492 C1.16293424,23.3434752 1.16293424,23.3347011 1.16514969,23.325927 C0.945820098,23.5737951 0.788744662,23.7670445 0.773014964,23.8019215 C0.755291361,23.8611467 0.832832126,23.9269524 0.832832126,23.9269524" id="Fill-73"></path>
            <path d="M1.41637536,23.2733921 C1.41372039,23.2843597 1.41130679,23.2953273 1.40913454,23.3060756 L1.32441697,23.6594522 C1.26649042,23.8939398 1.21845966,24.0935505 1.19166863,24.1944525 L1.26407681,24.253897 C1.27879981,24.1990589 1.29304009,24.1354467 1.30776308,24.0672282 C1.35844881,23.8524822 1.45016584,23.4664221 1.47912912,23.310682 L1.41637536,23.2733921 Z" id="Fill-75"></path>
            <path d="M14.0900432,32.7361639 C13.228233,31.9289474 12.6059129,31.3476637 12.5658133,31.3081803 C12.4862786,31.2248264 10.9797723,30.4066422 10.8222538,30.3386429 C10.7781663,30.3186819 10.7203431,30.2859984 10.656095,30.2443214 C10.0692222,29.8933577 8.66684208,28.7987896 8.60680338,28.7527256 C8.59151677,28.741758 8.57379317,28.7283775 8.56027892,28.7176292 C8.40519739,28.5947919 8.30107122,28.4982769 8.2257459,28.4083424 C8.14598969,28.3162145 8.09304042,28.2240865 8.06180257,28.129765 C8.01749356,27.9827989 7.82031847,27.4102893 7.72527565,27.1360989 C7.70068415,27.0656868 7.68296055,27.0154551 7.67653574,26.9935199 C7.47913911,26.7961028 4.00331893,24.7712614 1.65250448,23.4224639 C1.62591907,23.5606559 1.57740071,23.7887823 1.50872174,24.1112302 C1.47969934,24.2472287 1.45555093,24.3612919 1.44203669,24.4292911 C2.99285199,25.7059217 6.38271269,28.4873093 6.50456246,28.5618891 C6.59295894,28.6187013 7.06728687,28.7965961 7.41267559,28.9282075 C7.63887308,29.0115613 7.86684293,29.0971088 7.95989185,29.1387857 C8.03078626,29.1716885 8.15507303,29.2462683 8.32987207,29.3669121 C8.85493382,29.7222629 9.72117494,30.3847069 10.1068849,30.6830261 L10.2395903,30.7883152 C10.3392856,30.8670627 10.6696093,31.1502466 10.7203431,31.4112759 C10.7582273,31.5933383 10.9507499,32.1283386 11.0437988,32.3259751 C11.0681688,32.3786196 11.3849782,32.6857129 13.7820956,34.4098222 L13.7931728,34.4164028 C14.3583342,34.8222046 16.0420766,35.9738044 16.8106163,36.4848953 L16.9725657,35.427617 C16.4098413,34.9011715 15.5566714,34.1049225 14.7681926,33.3678987 L14.0900432,32.7361639 Z" id="Fill-77"></path>
            <polygon id="Fill-79" points="17.0077693 36.6121196 17.1192841 36.6669577 17.2952297 35.7018075 17.1812368 35.607486"></polygon>
            <path d="M17.6347639,36.0570924 L17.605963,36.0263831 C17.5971012,36.017609 17.5394995,35.9627709 17.4533185,35.8816106 L17.3445399,36.5506352 C17.4553124,36.4102497 17.5818146,36.2281873 17.6414102,36.1228981 C17.650272,36.1055693 17.6591338,36.0880211 17.6613493,36.0834147 C17.6591338,36.0834147 17.6482781,36.0704729 17.6347639,36.0570924" id="Fill-82"></path>
            <path d="M32.1171855,28.6781458 C32.1504173,28.695694 32.1902954,28.7176292 32.2326105,28.741758 C32.4760885,28.8733694 32.8106215,29.0532383 32.7796052,29.2791712 C32.7552352,29.4785625 32.8460687,29.7880686 32.9435485,30.0293562 C33.481903,29.6915536 34.6007054,28.8292796 34.8512729,28.6342753 C34.6696059,28.5158251 34.3747295,28.4366389 34.1620462,28.4017619 C33.9673082,28.368859 33.6746471,28.399349 33.4796875,28.41931 C33.4353785,28.4236971 33.3977158,28.4280841 33.3622686,28.4324712 C33.2096241,28.4434388 33.1187906,28.3776331 33.0122275,28.3008598 C32.96814,28.2701505 32.921394,28.2372476 32.8660077,28.2043448 C32.8172678,28.175829 32.3631005,27.8840904 31.6787479,27.4409986 C30.1033411,26.425178 27.469392,24.7251974 26.3459371,24.043231 C26.2019328,23.9554901 26.0357741,23.7800082 25.973963,23.6527839 C25.9340849,23.5672365 25.4974196,22.8499543 25.2182729,22.3937015 L24.9925185,25.1114769 C25.2182729,24.977672 25.7455501,24.6859334 25.9405097,24.8109642 L26.999495,25.4734082 C28.8629104,26.6425562 31.9798276,28.5969854 32.1171855,28.6781458" id="Fill-84"></path>
            <path d="M34.848858,30.50965 C35.1767447,30.2727495 35.2720091,29.8603671 35.2985945,29.6456212 C34.8267035,29.9766239 34.1709302,30.4723601 33.8188951,30.744357 C34.2728409,30.836485 34.5608495,30.7158412 34.848858,30.50965" id="Fill-86"></path>
            <path d="M26.0491554,36.0264489 L26.0203545,36.0571582 C26.0070618,36.0703194 25.9937691,36.085674 25.9915537,36.0900611 L25.9937691,36.0900611 C25.9959846,36.0900611 26.0048464,36.1054158 26.0137082,36.1227446 C26.0733038,36.2282531 26.1975906,36.408122 26.3105785,36.5485075 L26.2017999,35.8816764 C26.135558,35.9452886 26.0580172,36.0176748 26.0491554,36.0264489" id="Fill-88"></path>
            <polygon id="Fill-90" points="26.3903348 35.7017197 26.5662804 36.66687 26.6777952 36.6120319 26.5043277 35.6073982"></polygon>
            <path d="M42.0025475,23.4224859 C39.7363632,24.7232452 36.167051,26.8027053 35.9743069,27.0045094 C35.965445,27.0308317 35.945506,27.092031 35.8945506,27.2389971 C35.7970708,27.5243745 35.6331275,28.000369 35.5932494,28.1275934 C35.5378631,28.3096558 35.387434,28.4851377 35.094773,28.7176512 L35.0482486,28.7527475 C34.8158478,28.9370035 34.3769671,29.2726126 33.9671088,29.5753188 C33.530665,29.8977667 33.2049938,30.1236996 32.9989569,30.2463176 C32.9280625,30.2904074 32.8726762,30.3187038 32.8327981,30.3386649 C32.6755012,30.4066641 31.1712103,31.2248483 31.0914541,31.3082022 C31.0471451,31.3498791 30.3249083,32.0254843 28.8870809,33.3679206 L28.3132793,33.9053338 C27.7064674,34.4712628 27.1102897,35.0260049 26.6827077,35.4274196 L26.8444356,36.4871107 C27.5956949,35.9826004 29.3035856,34.820033 29.8618791,34.4186183 L29.8729564,34.4098442 C32.2700737,32.6855155 32.5868831,32.3786416 32.6112531,32.325997 C32.704302,32.1307734 32.8970462,31.5977473 32.932715,31.4112978 C32.9856642,31.152462 33.3157663,30.8694975 33.4154616,30.7883372 L33.5461732,30.683048 C33.933877,30.382316 34.806986,29.7178978 35.3251799,29.3669341 C35.5002005,29.2484838 35.6242657,29.1717105 35.6951601,29.1388076 C35.7751379,29.1034919 35.9543678,29.035712 36.1628417,28.9565258 L36.2423764,28.9260359 C36.506015,28.8273273 37.0532312,28.6233297 37.1484956,28.561911 C37.2725608,28.4851377 40.6622,25.7059436 42.2130153,24.4293131 L42.1465517,24.1112522 C42.0756573,23.7734496 42.0291329,23.5560714 42.0025475,23.4224859" id="Fill-92"></path>
            <path d="M42.2947971,23.4027661 C42.2826166,23.3542892 42.2728722,23.3106381 42.2631278,23.2733482 L42.199789,23.3106381 C42.2314584,23.4707653 42.3289026,23.8829283 42.3725089,24.0671843 C42.3873692,24.1354029 42.4019858,24.1990151 42.4166024,24.2538531 L42.4872495,24.1944087 C42.4628884,24.0915324 42.4092941,23.8787606 42.3483915,23.6284796 L42.2947971,23.4027661 Z" id="Fill-94"></path>
            <path d="M42.4967037,23.356724 C42.5432281,23.57147 42.6119071,23.8875567 42.6540007,24.0672062 L42.7581268,23.9818782 C42.793574,23.9511689 42.815507,23.9336207 42.8201595,23.9290143 C42.8223749,23.9270401 42.8996941,23.8612344 42.8797551,23.7976222 C42.8666839,23.7645 42.7069499,23.57147 42.4900573,23.3257954 C42.4900573,23.336763 42.4944882,23.3455371 42.4967037,23.356724" id="Fill-96"></path>
            <path d="M19.5224384,6.65745295 L19.5224384,6.6602991 C19.525313,6.6602991 19.525313,6.65745295 19.525313,6.65745295 L19.5224384,6.65745295 Z" id="Fill-98"></path>
        </g>
    </g>
</svg>