<?xml version="1.0" encoding="UTF-8"?>
<svg width="55px" height="55px" viewBox="0 0 55 55" version="1.1" xmlns="http://www.w3.org/2000/svg" xmlns:xlink="http://www.w3.org/1999/xlink">
    <!-- Generator: Sketch 49.1 (51147) - http://www.bohemiancoding.com/sketch -->
    <title>-g-icon_phatom_disactived</title>
    <desc>Created with Sketch.</desc>
    <defs></defs>
    <g id="-g-icon_phatom_disactived" stroke="none" stroke-width="1" fill="none" fill-rule="evenodd">
        <g id="icon_80______ic_p4p" transform="translate(1.000000, 14.000000)" fill-rule="nonzero">
            <path d="M27.9874844,13.904924 L28.1245535,13.904924 L28.1245535,14.8911309 C28.1245535,15.0892689 27.9609844,15.2497516 27.7590362,15.2497516 L27.4393914,15.2497516 L27.4393914,17.0427654 L25.6118051,17.0427654 L25.6118051,15.2497516 L25.2917948,15.2497516 C25.0898465,15.2497516 24.9262776,15.0892689 24.9262776,14.8911309 L24.9262776,13.904924 L25.0633465,13.904924 C24.8613983,13.904924 24.6978292,13.7444413 24.6978292,13.5463034 L24.6978292,12.5600965 L28.3530017,12.5600965 L28.3530017,13.5463034 C28.3530017,13.7444413 28.1894327,13.904924 27.9874844,13.904924 Z M29.2667948,20.3488896 L29.2667948,20.8083723 C29.2667948,21.2046482 28.9396568,21.5256138 28.5357603,21.5256138 L24.5150706,21.5256138 C24.1111741,21.5256138 23.7840362,21.2046482 23.7840362,20.8083723 L23.7840362,17.7600965 C23.7840362,17.3638207 24.1111741,17.0428551 24.5150706,17.0428551 L28.5357603,17.0428551 C28.9396568,17.0428551 29.2667948,17.3638207 29.2667948,17.7600965 L29.2667948,18.1075103 L30.4547259,18.1075103 C30.5561568,18.1075103 30.6374844,18.1882 30.6374844,18.2868207 L30.6374844,20.1695792 C30.6374844,20.2682 30.5561568,20.3488896 30.4547259,20.3488896 L29.2667948,20.3488896 Z M22.3218759,18.1635447 L23.7839448,18.1635447 L23.7839448,20.404924 L22.3218759,20.404924 C22.1199276,20.404924 21.9563586,20.2444413 21.9563586,20.0463034 L21.9563586,18.5221654 C21.9563586,18.3240275 22.1199276,18.1635447 22.3218759,18.1635447 Z" id="Combined-Shape" stroke="#4A4A4A" stroke-width="0.7"></path>
            <path d="M26.5254155,18.1635447 C27.1559327,18.1635447 27.6676568,18.6656138 27.6676568,19.2842344 C27.6676568,19.9028551 27.1559327,20.404924 26.5254155,20.404924 C25.8948983,20.404924 25.3831741,19.9028551 25.3831741,19.2842344 C25.3831741,18.6656138 25.8948983,18.1635447 26.5254155,18.1635447" id="Fill-7" stroke="#4A4A4A" stroke-width="0.7"></path>
            <path d="M18.6823292,11.6083906 C18.4282948,11.6083906 18.2226914,11.4194053 18.2226914,11.1865485 C18.2226914,10.9536916 18.4282948,10.7647063 18.6823292,10.7647063 C18.9363638,10.7647063 19.1419673,10.9536916 19.1419673,11.1865485 C19.1419673,11.4194053 18.9363638,11.6083906 18.6823292,11.6083906 Z M18.1311391,9.3240715 C17.8351578,10.1378734 16.8936574,12.855147 16.3813983,15.8268118 C15.8011397,19.2023924 15.5690362,22.8968857 15.4931914,24.4062369 C15.4740017,24.7909569 15.80845,25.1073385 16.2287948,25.1073385 L16.5952259,25.1073385 C16.9881568,25.1073385 17.3125535,24.8272353 17.3308292,24.4661384 C17.4021051,22.9981278 17.632381,19.2513261 18.2226914,15.8268118 C18.6185401,13.5268675 19.6588317,11.3754962 20.343009,10.1446238 C19.6187805,9.72798529 18.744113,9.48961856 18.1311391,9.3240715 Z" id="Fill-13" stroke="#4A4A4A" stroke-width="0.7"></path>
            <path d="M34.3091965,11.6083906 C34.0551621,11.6083906 33.8495586,11.4194053 33.8495586,11.1865485 C33.8495586,10.9536916 34.0551621,10.7647063 34.3091965,10.7647063 C34.563231,10.7647063 34.7688344,10.9536916 34.7688344,11.1865485 C34.7688344,11.4194053 34.563231,11.6083906 34.3091965,11.6083906 M34.8834966,9.38788397 C34.1604413,9.50603186 33.2468269,9.9098022 32.7127679,10.2610428 C33.3962118,11.5082613 34.385187,13.597759 34.7688344,15.8268118 C35.358231,19.2513261 35.5894206,22.9981278 35.6606965,24.4661384 C35.6789724,24.8272353 36.0033689,25.1073385 36.3963,25.1073385 L36.762731,25.1073385 C37.1830759,25.1073385 37.5175241,24.7909569 37.4983344,24.4062369 C37.4224897,22.8968857 37.1903862,19.2023924 36.6092138,15.8268118 C36.1103616,12.9286025 35.2026197,10.2723635 34.8834966,9.38788397 Z" id="Fill-14" stroke="#4A4A4A" stroke-width="0.7"></path>
            <path d="M8.20231033,0.00837233971 C8.70672411,0.00837233971 9.11610343,0.409130961 9.11610343,0.904924064 L9.11610343,1.80147579 L7.28851722,1.80147579 L7.28851722,0.904924064 C7.28851722,0.409130961 7.69789652,0.00837233971 8.20231033,0.00837233971" id="Fill-15" fill="#4A4A4A"></path>
            <path d="M9.3445517,1.80147579 L15.1471379,1.80147579 C15.3490862,1.80147579 15.5126551,1.64099303 15.5126551,1.4428551 L15.5126551,1.26354476 C15.5126551,1.06540682 15.3490862,0.904924064 15.1471379,0.904924064 L9.3445517,0.904924064 L9.3445517,1.80147579 Z M1.25748274,1.80147579 L7.06006895,1.80147579 L7.06006895,0.904924064 L1.25748274,0.904924064 C1.05553446,0.904924064 0.891965496,1.06540682 0.891965496,1.26354476 L0.891965496,1.4428551 C0.891965496,1.64099303 1.05553446,1.80147579 1.25748274,1.80147579 Z" id="Fill-16" stroke="#4A4A4A" stroke-width="0.7"></path>
            <path d="M7.19704652,2.02561372 L9.20739136,2.02561372 C9.40933963,2.02561372 9.5729086,2.18609648 9.5729086,2.38423441 L9.5729086,4.58078614 C9.5729086,4.77892407 9.40933963,4.93940683 9.20739136,4.93940683 L7.19704652,4.93940683 C6.99509825,4.93940683 6.83152929,4.77892407 6.83152929,4.58078614 L6.83152929,2.38423441 C6.83152929,2.18609648 6.99509825,2.02561372 7.19704652,2.02561372" id="Fill-17" stroke="#4A4A4A" stroke-width="0.7"></path>
            <path d="M44.8012776,0.00837233971 C45.3056914,0.00837233971 45.7150706,0.409130961 45.7150706,0.904924064 L45.7150706,1.80147579 L43.8874844,1.80147579 L43.8874844,0.904924064 C43.8874844,0.409130961 44.2968638,0.00837233971 44.8012776,0.00837233971" id="Fill-18" fill="#4A4A4A"></path>
            <path d="M43.6590362,1.80147579 L37.85645,1.80147579 C37.6545017,1.80147579 37.4909327,1.64099303 37.4909327,1.4428551 L37.4909327,1.26354476 C37.4909327,1.06540682 37.6545017,0.904924064 37.85645,0.904924064 L43.6590362,0.904924064 L43.6590362,1.80147579 Z M51.7461051,1.80147579 L45.9435189,1.80147579 L45.9435189,0.904924064 L51.7461051,0.904924064 C51.9480535,0.904924064 52.1116224,1.06540682 52.1116224,1.26354476 L52.1116224,1.4428551 C52.1116224,1.64099303 51.9480535,1.80147579 51.7461051,1.80147579 Z" id="Fill-19" stroke="#4A4A4A" stroke-width="0.7"></path>
            <path d="M43.7960138,2.02561372 L45.8063586,2.02561372 C46.0083068,2.02561372 46.1718759,2.18609648 46.1718759,2.38423441 L46.1718759,4.58078614 C46.1718759,4.77892407 46.0083068,4.93940683 45.8063586,4.93940683 L43.7960138,4.93940683 C43.5940655,4.93940683 43.4304965,4.77892407 43.4304965,4.58078614 L43.4304965,2.38423441 C43.4304965,2.18609648 43.5940655,2.02561372 43.7960138,2.02561372" id="Fill-20" stroke="#4A4A4A" stroke-width="0.7"></path>
            <path d="M23.0581189,10.6654137 L23.7580844,10.1023792 C23.8046879,10.0647241 23.8695673,10.0441034 23.9353603,10.0441034 L29.1156535,10.0441034 C29.1823603,10.0441034 29.2454121,10.0647241 29.2929292,10.1023792 L29.9928948,10.6654137 C30.0833603,10.738931 30.203981,10.7792758 30.3319121,10.7792758 L31.6980327,10.7792758 C31.6733603,10.7963103 31.6459465,10.8115516 31.6221879,10.8303792 L29.7543948,12.2021034 C29.4382224,12.4343103 29.0535155,12.5598275 28.657843,12.5598275 L26.52505,12.5598275 L24.3931706,12.5598275 C23.9974983,12.5598275 23.6127914,12.4343103 23.2966189,12.2021034 L21.4288259,10.8303792 C21.4041535,10.8115516 21.3776535,10.7963103 21.352981,10.7792758 L22.7191017,10.7792758 C22.8461189,10.7792758 22.969481,10.7380344 23.0581189,10.6654137 Z M46.6284983,6.28396545 L46.6284983,6.47313785 C46.6284983,6.86941372 46.3013603,7.18948268 45.8983776,7.18948268 L43.400981,7.18948268 C42.5118603,7.18948268 41.6273086,7.31679303 40.7756535,7.56693096 L34.4787051,9.41741372 C33.5850155,9.68010337 32.7434121,10.0826551 31.9721706,10.5954827 L30.3319121,10.5954827 C30.2652051,10.5954827 30.2012397,10.5739654 30.1546362,10.5354137 L29.4546706,9.97237923 C29.3632914,9.89975854 29.2435844,9.86031027 29.1156535,9.86031027 L23.9353603,9.86031027 C23.8092568,9.86031027 23.6858948,9.9006551 23.596343,9.97327579 L22.8963776,10.5363103 C22.8497741,10.5730689 22.7858086,10.5954827 22.7191017,10.5954827 L21.0779292,10.5954827 C20.3076017,10.0826551 19.4659983,9.68010337 18.5723086,9.41741372 L12.2753603,7.56693096 C11.4237051,7.31679303 10.5391534,7.18948268 9.65003274,7.18948268 L7.15263619,7.18948268 C6.74965343,7.18948268 6.4216017,6.86941372 6.4216017,6.47313785 L6.4216017,6.28396545 L46.6284983,6.28396545 Z M6.43348101,6.05982752 C6.46363619,5.70120683 6.75604998,5.40982752 7.12979136,5.40175854 C7.49622239,5.39279303 7.99515343,5.37037923 8.60648101,5.31568958 C9.98356722,5.19286199 15.1236535,3.45175854 19.6158603,3.05010337 C23.5908603,2.69417234 26.52505,2.71479303 26.52505,2.71479303 C26.52505,2.71479303 29.4601535,2.69417234 33.4342397,3.05010337 C37.9264465,3.45175854 43.0665327,5.19286199 44.4445327,5.31568958 C45.0558603,5.37037923 45.5547914,5.39279303 45.9212224,5.40175854 C46.2949638,5.40982752 46.5873776,5.70120683 46.6175327,6.05982752 L6.43348101,6.05982752 Z" id="Fill-21" stroke="#4A4A4A" stroke-width="0.7"></path>
        </g>
    </g>
</svg>