<?xml version="1.0" encoding="UTF-8"?>
<svg width="55px" height="55px" viewBox="0 0 55 55" version="1.1" xmlns="http://www.w3.org/2000/svg" xmlns:xlink="http://www.w3.org/1999/xlink">
    <!-- Generator: Sketch 49.1 (51147) - http://www.bohemiancoding.com/sketch -->
    <title>-g-icon_mavicpro_disactived</title>
    <desc>Created with Sketch.</desc>
    <defs></defs>
    <g id="-g-icon_mavicpro_disactived" stroke="none" stroke-width="1" fill="none" fill-rule="evenodd">
        <g id="icon_80______ic_mavic" transform="translate(3.000000, 17.000000)" fill-rule="nonzero">
            <path d="M41.7552128,6.3588 C40.8892553,5.96505 40.5881914,5.05155 40.5115958,4.74915 C40.5062766,4.7292 40.4871276,4.71765 40.478617,4.69875 C40.9179787,4.78695 41.3445745,4.8741 41.7552128,4.9623 L41.7552128,6.3588 Z" id="Fill-1" fill="#4A4A4A"></path>
            <path d="M28.191383,4.374615 L23.3456383,4.226565 C23.1445745,4.220265 22.9445745,4.241265 22.7498936,4.287465 L18.7243617,5.267115 L12.4605319,5.267115 C12.3424468,5.267115 12.2456383,5.360565 12.2456383,5.477115 L12.2456383,8.208165 C12.2456383,8.324715 12.3424468,8.419215 12.4605319,8.419215 L28.191383,8.419215 L28.191383,4.374615 Z" id="Fill-5" stroke="#4A4A4A" stroke-width="0.7"></path>
            <path d="M48.9428724,6.777645 L48.9428724,6.251595 C48.9428724,6.184395 48.8854255,6.133995 48.8184042,6.146595 C48.0184042,6.299895 43.5928724,7.053795 42.1290425,6.755595 C40.7556383,6.475245 40.3354255,5.134395 40.2535107,4.812045 C40.2418086,4.765845 40.2024468,4.740645 40.1545745,4.739595 L30.319468,4.439295 L30.319468,8.418795 L48.8343617,8.418795 C48.895,8.418795 48.9428724,8.372595 48.9428724,8.313795 L48.9428724,7.827645 C48.6439362,7.827645 48.4024468,7.592445 48.4024468,7.302645 C48.4024468,7.012845 48.6439362,6.777645 48.9428724,6.777645" id="Fill-7" stroke="#4A4A4A" stroke-width="0.7"></path>
            <path d="M12.2339362,12.3062745 L12.1595745,10.88346 L20.6585107,10.44981 L21.7212766,10.39521 L39.7819149,9.47436 C40.9553192,9.41451 41.956383,10.30491 42.0170213,11.46306 C42.0776596,12.62121 41.175532,13.60926 40.0021276,13.66911 L20.8776596,14.64456 L19.706383,12.60126 L17.8191489,12.69786 L17.8191489,12.30831 L17.5530851,12.30831 L17.5530851,16.5507822 L17.0211703,17.8206 L15.9573404,17.8206 L15.9573404,18.7937253 L39.5847872,17.160255 C39.7028724,17.152905 39.8039362,17.240055 39.8124468,17.355555 L39.8571276,17.984505 C39.8645745,18.098955 39.7762766,18.199755 39.6592553,18.208155 L15.8716035,19.852701 C15.8362249,19.9059141 15.7923122,19.9374 15.7445745,19.9374 L14.6464689,19.9374 L14.6145745,19.939605 C14.5975329,19.9408283 14.5808072,19.9400252 14.5646405,19.9374 L14.0424468,19.9374 C13.9243617,19.9374 13.8296808,19.7447438 13.8296808,19.5071345 L13.8296808,17.8206 L12.7658511,17.8206 L12.2339362,16.5507822 L12.2339362,12.3062745 Z" id="Combined-Shape" stroke="#4A4A4A" stroke-width="0.7"></path>
            <path d="M43.6169149,2.120265 L43.6169149,1.14563146 L19.9895745,2.780085 C19.8714893,2.787435 19.7704255,2.700285 19.7619149,2.584785 L19.7172341,1.955835 C19.7097872,1.840335 19.7980851,1.739535 19.9151064,1.732185 L43.7182092,0.0865708047 C43.7505656,0.0442078323 43.7887148,0.019845 43.8296808,0.019845 L44.6833693,0.019845 L44.9597872,0.000735 C44.9972244,-0.0019523083 45.0331373,0.00513966846 45.0649482,0.019845 L45.5318086,0.019845 C45.6498936,0.019845 45.7445745,0.222273232 45.7445745,0.474739903 L45.7445745,2.120265 L46.8082979,2.120265 L47.3402128,3.170265 L47.3402128,6.129165 C46.0519149,6.327615 44.2625532,6.562815 43.0476596,6.562815 C42.6817021,6.562815 42.3902128,6.540765 42.1827659,6.498765 C42.1242553,6.487215 42.076383,6.463065 42.0210638,6.447315 L42.0210638,3.170265 L42.5529787,2.120265 L43.6169149,2.120265 Z" id="Combined-Shape" stroke="#4A4A4A" stroke-width="0.7"></path>
            <path d="M45.7009575,8.681295 L48.8924468,8.681295 L46.7967021,20.059095 C46.778617,20.158845 46.6903192,20.231295 46.5871276,20.231295 L43.828617,20.231295 C43.6956383,20.231295 43.5956383,20.112645 43.6190425,19.983495 L45.7009575,8.681295 Z" id="Fill-18" stroke="#4A4A4A" stroke-width="0.7"></path>
            <path d="M6.48085107,12 L10.1574468,12 C10.2106383,12 10.2542553,12.0462 10.2542553,12.105 L10.2542553,16.095 C10.2542553,16.15275 10.2106383,16.2 10.1574468,16.2 L6.48085107,16.2 C6.42978724,16.2 6.38085107,16.17795 6.34468086,16.13805 L6.05638297,15.8262 C6.02021276,15.7863 6,15.7338 6,15.6771 L6,12.5229 C6,12.4662 6.02021276,12.4137 6.05638297,12.3738 L6.34468086,12.06195 C6.38085107,12.02205 6.42978724,12 6.48085107,12" id="Fill-20" stroke="#4A4A4A" stroke-width="0.7"></path>
            <path d="M12.3025539,16.8916889 C11.1178891,17.8319149 9.61387391,18.394635 7.97882979,18.394635 C4.16606383,18.394635 1.06393617,15.332835 1.06393617,11.569635 C1.06393617,10.4395674 1.34887571,9.37637894 1.84417762,8.43740609 C1.89698435,8.3372973 1.59403568,7.78924929 1.52174782,7.91326652 C0.893895398,8.9904116 0.532021276,10.2382268 0.532021276,11.569635 C0.532021276,15.628935 3.86606383,18.919635 7.97882979,18.919635 C9.71358653,18.919635 11.3076384,18.3313716 12.5720109,17.3489874 C12.8428696,17.1385373 12.5014638,16.7338212 12.3025539,16.8916889 Z" id="Fill-30" fill="#4A4A4A"></path>
            <path d="M5.3087318,7.71350363 L3.03705441,7.71350363 C3.0036354,7.71350363 2.97266169,7.69258659 2.96125032,7.66121103 L2.1053977,5.40860693 C2.08502026,5.35631434 2.12496005,5.29999924 2.18120179,5.29999924 L4.45287918,5.29999924 C4.48711328,5.29999924 4.5172719,5.32091628 4.52868326,5.35229183 L5.38453589,7.60489593 C5.40491333,7.65718853 5.36578864,7.71350363 5.3087318,7.71350363 Z M12.4612766,8.681295 C12.1953191,8.681295 11.9793617,8.469195 11.9793617,8.208795 L11.9793617,5.477745 C11.9793617,5.217345 12.1953191,5.005245 12.4612766,5.005245 L18.7240425,5.005245 L22.6857447,4.032945 C22.8793617,3.986745 23.0761703,3.962595 23.2729787,3.962595 L39.1591489,4.445595 C36.5793617,3.968895 33.6740425,3.542595 30.8634042,3.376695 C21.9974468,2.852745 12.233617,3.563595 12.233617,3.563595 C7.07617021,3.563595 -0.000425531914,4.219845 -0.000425531914,4.219845 L1.59531914,8.419845 L5.58468086,9.207345 L10.3719149,9.207345 L10.3719149,10.152345 L12.233617,10.519845 L12.233617,10.617495 L39.8931914,9.208395 C41.1676596,9.208395 42.2165958,10.193295 42.2814893,11.450145 C42.315532,12.079095 42.0974468,12.684945 41.6697872,13.154295 C41.2410638,13.622595 40.6538297,13.898745 40.015532,13.931295 L20.7272341,14.915145 L19.5548936,12.871845 L17.8187234,12.961095 L17.8187234,16.832445 L17.3761703,17.706045 L39.3665958,17.005695 L39.6261703,17.602095 C39.7878724,18.079845 40.1782979,18.393795 40.614468,18.393795 L43.2687234,18.393795 C43.4708511,18.393795 43.6453192,18.223695 43.6857447,17.988495 L43.9208511,16.860795 L43.9240425,16.860795 L45.4304255,8.681295 L12.4612766,8.681295 Z" id="Fill-32" stroke="#4A4A4A" stroke-width="0.7"></path>
            <polyline id="Fill-35" stroke="#4A4A4A" stroke-width="0.7" points="4.78723404 9.12140202 4.78723404 11.8951024 11 11.8951024 11 10.2319846"></polyline>
        </g>
    </g>
</svg>