<?xml version="1.0" encoding="UTF-8"?>
<svg width="55px" height="55px" viewBox="0 0 55 55" version="1.1" xmlns="http://www.w3.org/2000/svg" xmlns:xlink="http://www.w3.org/1999/xlink">
    <!-- Generator: Sketch 49.1 (51147) - http://www.bohemiancoding.com/sketch -->
    <title>-g-icon_mavicpro_actived</title>
    <desc>Created with Sketch.</desc>
    <defs></defs>
    <g id="-g-icon_mavicpro_actived" stroke="none" stroke-width="1" fill="none" fill-rule="evenodd">
        <g id="icon_80______ic_mavic" transform="translate(3.000000, 17.000000)" fill-rule="nonzero">
            <path d="M41.7552128,6.3588 C40.8892553,5.96505 40.5881914,5.05155 40.5115958,4.74915 C40.5062766,4.7292 40.4871276,4.71765 40.478617,4.69875 C40.9179787,4.78695 41.3445745,4.8741 41.7552128,4.9623 L41.7552128,6.3588 Z" id="Fill-1" fill="#4A4A4A"></path>
            <polygon id="Fill-3" fill="#707473" points="29.2552128 8.418795 29.7871276 8.418795 29.7871276 4.422495 29.2552128 4.406745"></polygon>
            <path d="M28.191383,4.374615 L23.3456383,4.226565 C23.1445745,4.220265 22.9445745,4.241265 22.7498936,4.287465 L18.7243617,5.267115 L12.4605319,5.267115 C12.3424468,5.267115 12.2456383,5.360565 12.2456383,5.477115 L12.2456383,8.208165 C12.2456383,8.324715 12.3424468,8.419215 12.4605319,8.419215 L28.191383,8.419215 L28.191383,4.374615 Z" id="Fill-5" fill="#4A4A4A"></path>
            <path d="M48.9428724,6.777645 L48.9428724,6.251595 C48.9428724,6.184395 48.8854255,6.133995 48.8184042,6.146595 C48.0184042,6.299895 43.5928724,7.053795 42.1290425,6.755595 C40.7556383,6.475245 40.3354255,5.134395 40.2535107,4.812045 C40.2418086,4.765845 40.2024468,4.740645 40.1545745,4.739595 L30.319468,4.439295 L30.319468,8.418795 L48.8343617,8.418795 C48.895,8.418795 48.9428724,8.372595 48.9428724,8.313795 L48.9428724,7.827645 C48.6439362,7.827645 48.4024468,7.592445 48.4024468,7.302645 C48.4024468,7.012845 48.6439362,6.777645 48.9428724,6.777645" id="Fill-7" fill="#4A4A4A"></path>
            <path d="M39.6592553,18.208155 L14.6145745,19.939605 C14.4975532,19.948005 14.3954255,19.860855 14.3869149,19.744305 L14.3432979,19.116405 C14.3347872,19.000905 14.4230851,18.900105 14.5401064,18.891705 L39.5847872,17.160255 C39.7028724,17.152905 39.8039362,17.240055 39.8124468,17.355555 L39.8571276,17.984505 C39.8645745,18.098955 39.7762766,18.199755 39.6592553,18.208155" id="Fill-10" fill="#4A4A4A"></path>
            <path d="M19.9151064,1.732185 L44.9597872,0.000735 C45.0768086,-0.007665 45.1789362,0.079485 45.1874468,0.196035 L45.2321276,0.823935 C45.2406383,0.939435 45.1523404,1.040235 45.0342553,1.047585 L19.9895745,2.780085 C19.8714893,2.787435 19.7704255,2.700285 19.7619149,2.584785 L19.7172341,1.955835 C19.7097872,1.840335 19.7980851,1.739535 19.9151064,1.732185" id="Fill-12" fill="#4A4A4A"></path>
            <path d="M45.7445745,1.857345 L45.7445745,0.229845 C45.7445745,0.113295 45.6498936,0.019845 45.5318086,0.019845 L43.8296808,0.019845 C43.7115958,0.019845 43.6169149,0.113295 43.6169149,0.229845 L43.6169149,1.857345 L45.7445745,1.857345 Z" id="Fill-14" fill="#4A4A4A"></path>
            <path d="M2.09851064,5.56353 L6.18361703,4.74453 L6.18361703,7.89453 L2.09851064,7.07553 C1.99957447,7.05558 1.92829787,6.96948 1.92829787,6.86973 L1.92829787,5.76933 C1.92829787,5.66958 1.99957447,5.58348 2.09851064,5.56353" id="Fill-16" fill="#4A4A4A"></path>
            <path d="M45.7009575,8.681295 L48.8924468,8.681295 L46.7967021,20.059095 C46.778617,20.158845 46.6903192,20.231295 46.5871276,20.231295 L43.828617,20.231295 C43.6956383,20.231295 43.5956383,20.112645 43.6190425,19.983495 L45.7009575,8.681295 Z" id="Fill-18" fill="#4A4A4A"></path>
            <path d="M6.32372341,11.832345 L10.0003191,11.832345 C10.0535106,11.832345 10.0971277,11.878545 10.0971277,11.937345 L10.0971277,15.927345 C10.0971277,15.985095 10.0535106,16.032345 10.0003191,16.032345 L6.32372341,16.032345 C6.27265958,16.032345 6.22372341,16.010295 6.1875532,15.970395 L5.89925532,15.658545 C5.86308511,15.618645 5.84287234,15.566145 5.84287234,15.509445 L5.84287234,12.355245 C5.84287234,12.298545 5.86308511,12.246045 5.89925532,12.206145 L6.1875532,11.894295 C6.22372341,11.854395 6.27265958,11.832345 6.32372341,11.832345" id="Fill-20" fill="#4A4A4A"></path>
            <polygon id="Fill-22" fill="#4A4A4A" points="17.5530851 16.7706 17.0211703 17.8206 12.7658511 17.8206 12.2339362 16.7706 12.2339362 12.5706 17.5530851 12.5706"></polygon>
            <path d="M13.8296808,18.0831 L13.8296808,19.72635 C13.8296808,19.8429 13.9243617,19.9374 14.0424468,19.9374 L15.7445745,19.9374 C15.8626596,19.9374 15.9573404,19.8429 15.9573404,19.72635 L15.9573404,18.0831 L13.8296808,18.0831 Z" id="Fill-24" fill="#4A4A4A"></path>
            <path d="M42.1827659,6.498765 C42.3902128,6.540765 42.6817021,6.562815 43.0476596,6.562815 C44.2625532,6.562815 46.0519149,6.327615 47.3402128,6.129165 L47.3402128,3.170265 L46.8082979,2.120265 L42.5529787,2.120265 L42.0210638,3.170265 L42.0210638,6.447315 C42.076383,6.463065 42.1242553,6.487215 42.1827659,6.498765" id="Fill-26" fill="#4A4A4A"></path>
            <path d="M39.7819149,9.47436 L21.7212766,10.39521 L20.6585107,10.44981 L12.1595745,10.88346 L12.2340426,12.30831 L17.8191489,12.30831 L17.8191489,12.69786 L19.706383,12.60126 L20.8776596,14.64456 L40.0021276,13.66911 C41.175532,13.60926 42.0776596,12.62121 42.0170213,11.46306 C41.956383,10.30491 40.9553192,9.41451 39.7819149,9.47436" id="Fill-28" fill="#4A4A4A"></path>
            <path d="M12.871383,16.387035 C11.6192553,17.627085 9.88840425,18.394635 7.97882979,18.394635 C4.16606383,18.394635 1.06393617,15.332835 1.06393617,11.569635 C1.06393617,10.319085 1.41287234,9.150435 2.00968086,8.141385 L1.74904255,7.548135 C0.982021276,8.704185 0.532021276,10.084935 0.532021276,11.569635 C0.532021276,15.628935 3.86606383,18.919635 7.97882979,18.919635 C10.0852128,18.919635 11.9841489,18.052335 13.3373404,16.665285 L12.871383,16.387035 Z" id="Fill-30" fill="#4A4A4A"></path>
            <path d="M4.99957447,7.894845 L2.03468086,7.894845 C1.99106383,7.894845 1.9506383,7.867545 1.93574468,7.826595 L0.818723404,4.886595 C0.792127659,4.818345 0.84425532,4.744845 0.917659575,4.744845 L3.8825532,4.744845 C3.92723404,4.744845 3.96659575,4.772145 3.98148936,4.813095 L5.09851064,7.753095 C5.12510638,7.821345 5.07404255,7.894845 4.99957447,7.894845 Z M12.4612766,8.681295 C12.1953191,8.681295 11.9793617,8.469195 11.9793617,8.208795 L11.9793617,5.477745 C11.9793617,5.217345 12.1953191,5.005245 12.4612766,5.005245 L18.7240425,5.005245 L22.6857447,4.032945 C22.8793617,3.986745 23.0761703,3.962595 23.2729787,3.962595 L39.1591489,4.445595 C36.5793617,3.968895 33.6740425,3.542595 30.8634042,3.376695 C21.9974468,2.852745 12.233617,3.563595 12.233617,3.563595 C7.07617021,3.563595 -0.000425531914,4.219845 -0.000425531914,4.219845 L1.59531914,8.419845 L5.58468086,9.207345 L10.3719149,9.207345 L10.3719149,10.152345 L12.233617,10.519845 L12.233617,10.617495 L39.8931914,9.208395 C41.1676596,9.208395 42.2165958,10.193295 42.2814893,11.450145 C42.315532,12.079095 42.0974468,12.684945 41.6697872,13.154295 C41.2410638,13.622595 40.6538297,13.898745 40.015532,13.931295 L20.7272341,14.915145 L19.5548936,12.871845 L17.8187234,12.961095 L17.8187234,16.832445 L17.3761703,17.706045 L39.3665958,17.005695 L39.6261703,17.602095 C39.7878724,18.079845 40.1782979,18.393795 40.614468,18.393795 L43.2687234,18.393795 C43.4708511,18.393795 43.6453192,18.223695 43.6857447,17.988495 L43.9208511,16.860795 L43.9240425,16.860795 L45.4304255,8.681295 L12.4612766,8.681295 Z" id="Fill-32" fill="#4A4A4A"></path>
            <polygon id="Fill-35" fill="#4A4A4A" points="4.78723404 11.56995 10.106383 11.56995 10.106383 9.46995 4.78723404 9.46995"></polygon>
        </g>
    </g>
</svg>